<?xml version="1.0" encoding="utf-8"?>
<!-- Generator: Adobe Illustrator 16.0.0, SVG Export Plug-In . SVG Version: 6.00 Build 0)  -->
<!DOCTYPE svg PUBLIC "-//W3C//DTD SVG 1.1//EN" "http://www.w3.org/Graphics/SVG/1.1/DTD/svg11.dtd">
<svg version="1.1" id="Layer_1" xmlns="http://www.w3.org/2000/svg" xmlns:xlink="http://www.w3.org/1999/xlink" x="0px" y="0px"
	 width="7353.58px" height="918.587px" viewBox="0 0 7353.58 918.587" enable-background="new 0 0 7353.58 918.587"
	 xml:space="preserve">
<path d="M5842.348,359.811"/>
<g>
	<polygon points="260.785,764.208 6696.945,797.084 7262.672,95.702 260.785,128.579 	"/>
	<polygon fill="#009348" points="304.065,435.708 526.974,185.569 401.676,188.069 260.55,340.329 260.55,530.024 416.292,705.033 
		549.007,705.033 	"/>
	<polygon fill="#F16623" points="553.354,188.069 326.107,433.246 567.972,705.033 700.685,705.033 455.747,435.708 
		678.653,185.569 	"/>
	<polygon fill="#009348" points="709.131,188.069 481.883,433.246 723.751,705.033 856.462,705.033 611.523,435.708 
		834.433,185.569 	"/>
	<polygon fill="#F69220" points="864.91,188.069 637.659,433.246 879.526,705.033 1012.239,705.033 767.297,435.708 990.21,185.569 
			"/>
	<polygon fill="#FFFFFF" points="1020.688,188.069 793.438,433.246 1035.302,705.033 1168.016,705.033 923.077,435.708 
		1145.986,185.569 	"/>
	<polygon fill="#F69220" points="2111.914,188.069 2339.164,433.246 2097.298,705.033 1964.583,705.033 2209.525,435.708 
		1986.613,185.569 	"/>
	<polygon fill="#009348" points="1956.133,188.069 2183.385,433.246 1941.52,705.033 1808.806,705.033 2053.746,435.708 
		1830.834,185.569 	"/>
	<polygon fill="#F16623" points="1804.458,188.069 2031.704,433.246 1789.84,705.033 1657.126,705.033 1902.065,435.708 
		1679.157,185.569 	"/>
	<polygon fill="#009348" points="1648.68,188.069 1875.928,433.246 1634.062,705.033 1501.347,705.033 1746.289,435.708 
		1523.379,185.569 	"/>
	<polygon fill="#F69220" points="1492.9,188.069 1720.152,433.246 1478.288,705.033 1345.57,705.033 1590.512,435.708 
		1367.603,185.569 	"/>
	<polygon fill="#FFFFFF" points="1337.125,188.069 1564.372,433.246 1322.507,705.033 1189.794,705.033 1434.732,435.708 
		1211.823,185.569 	"/>
	<polyline fill="#009348" points="976.477,434.892 1175.3,185.569 1386.419,434.892 1181.45,665.028 980.73,445.298 	"/>
	<polygon fill="#009348" points="2337.495,397.078 2538.631,185.569 2142.351,185.569 	"/>
	<polygon fill="#009348" points="2345.692,464.147 2141.064,705.033 2553.663,705.033 	"/>
	<polygon fill="#F69220" points="2574.615,188.069 2347.367,433.246 2589.232,705.033 2721.948,705.033 2477.006,435.708 
		2699.916,185.569 	"/>
	<polygon fill="#009348" points="2730.394,188.069 2503.142,433.246 2745.007,705.033 2877.725,705.033 2632.783,435.708 
		2855.692,185.569 	"/>
	<polygon fill="#F16623" points="2882.073,188.069 2654.823,433.246 2896.688,705.033 3029.401,705.033 2784.462,435.708 
		3007.372,185.569 	"/>
	<polygon fill="#009348" points="3037.849,188.069 2810.599,433.246 3052.465,705.033 3185.18,705.033 2940.244,435.708 
		3163.152,185.569 	"/>
	<polygon fill="#F69220" points="3193.627,188.069 2966.375,433.246 3208.242,705.033 3340.958,705.033 3096.016,435.708 
		3318.928,185.569 	"/>
	<polygon fill="#FFFFFF" points="3349.407,188.069 3122.155,433.246 3364.021,705.033 3496.735,705.033 3251.796,435.708 
		3474.705,185.569 	"/>
	<polygon fill="#F69220" points="4440.63,188.069 4667.882,433.246 4426.017,705.033 4293.3,705.033 4538.243,435.708 
		4315.33,185.569 	"/>
	<polygon fill="#009348" points="4284.851,188.069 4512.104,433.246 4270.237,705.033 4137.524,705.033 4382.464,435.708 
		4159.552,185.569 	"/>
	<polygon fill="#F16623" points="4133.174,188.069 4360.423,433.246 4118.557,705.033 3985.843,705.033 4230.784,435.708 
		4007.874,185.569 	"/>
	<polygon fill="#009348" points="3977.398,188.069 4204.648,433.246 3962.781,705.033 3830.065,705.033 4075.008,435.708 
		3852.096,185.569 	"/>
	<polygon fill="#F69220" points="3821.618,188.069 4048.871,433.246 3807.003,705.033 3674.288,705.033 3919.231,435.708 
		3696.32,185.569 	"/>
	<polygon fill="#FFFFFF" points="3665.84,188.069 3893.09,433.246 3651.225,705.033 3518.512,705.033 3763.451,435.708 
		3540.542,185.569 	"/>
	<polyline fill="#009348" points="3305.196,434.892 3504.019,185.569 3715.136,434.892 3510.168,665.028 3309.447,445.298 	"/>
	<polyline fill="#F69220" points="3365.447,432.069 3505.83,256.039 3654.889,432.069 3510.168,594.563 3368.452,439.419 	"/>
	<polyline fill="#F69220" points="1036.729,432.069 1177.11,256.039 1326.17,432.069 1181.45,594.563 1039.732,439.419 	"/>
	<polygon fill="#009348" points="4666.213,397.078 4867.348,185.569 4471.067,185.569 	"/>
	<polygon fill="#009348" points="4674.412,464.147 4469.781,705.033 4882.381,705.033 	"/>
	<polygon fill="#F69220" points="4908.031,188.069 4680.779,433.246 4922.645,705.033 5055.358,705.033 4810.418,435.708 
		5033.328,185.569 	"/>
	<polygon fill="#009348" points="5063.809,188.069 4836.559,433.246 5078.426,705.033 5211.139,705.033 4966.198,435.708 
		5189.107,185.569 	"/>
	<polygon fill="#F16623" points="5215.486,188.069 4988.235,433.246 5230.104,705.033 5362.816,705.033 5117.874,435.708 
		5340.789,185.569 	"/>
	<polygon fill="#009348" points="5371.262,188.069 5144.014,433.246 5385.877,705.033 5518.594,705.033 5273.652,435.708 
		5496.559,185.569 	"/>
	<polygon fill="#F69220" points="5527.037,188.069 5299.793,433.246 5541.66,705.033 5674.369,705.033 5429.432,435.708 
		5652.342,185.569 	"/>
	<polygon fill="#FFFFFF" points="5682.814,188.069 5455.572,433.246 5697.436,705.033 5830.148,705.033 5585.209,435.708 
		5808.119,185.569 	"/>
	<polygon fill="#F69220" points="6774.047,188.069 6995.164,427.362 6772.32,703.636 6626.713,705.033 6871.652,435.708 
		6648.746,185.569 	"/>
	<polygon fill="#009348" points="6618.271,188.069 6845.514,433.246 6603.645,705.033 6470.932,705.033 6715.879,435.708 
		6492.967,185.569 	"/>
	<polygon fill="#F16623" points="6466.588,188.069 6693.838,433.246 6451.969,705.033 6319.256,705.033 6564.199,435.708 
		6341.293,185.569 	"/>
	<polygon fill="#009348" points="6310.813,188.069 6538.061,433.246 6296.195,705.033 6163.48,705.033 6408.416,435.708 
		6185.512,185.569 	"/>
	<polygon fill="#F69220" points="6155.035,188.069 6382.281,433.246 6140.418,705.033 6007.701,705.033 6252.643,435.708 
		6029.727,185.569 	"/>
	<polygon fill="#FFFFFF" points="5999.256,188.069 6226.508,433.246 5984.639,705.033 5851.924,705.033 6096.863,435.708 
		5873.955,185.569 	"/>
	<polyline fill="#009348" points="5638.609,434.892 5837.436,185.569 6048.555,434.892 5843.58,665.028 5642.865,445.298 	"/>
	<polygon fill="#009348" points="7009.549,409.524 7189.902,185.569 6804.486,185.569 	"/>
	<polyline fill="#F69220" points="5707.205,432.069 5847.588,256.039 5996.645,432.069 5851.924,594.563 5710.201,439.419 	"/>
	<polygon fill="#F69220" points="260.785,161.458 7209.633,161.458 7262.672,95.702 260.785,95.702 	"/>
	<polygon fill="#F69220" points="260.785,797.084 6696.945,797.084 6749.561,731.329 260.785,731.329 	"/>
	<polyline fill="#009348" points="260.785,315.223 373.593,185.569 260.785,185.569 	"/>
	<polyline fill="#009348" points="260.785,563.657 385.207,705.033 260.785,705.033 	"/>
</g>
</svg>
