<?xml version="1.0" encoding="utf-8"?>
<!-- Generator: Adobe Illustrator 16.0.0, SVG Export Plug-In . SVG Version: 6.00 Build 0)  -->
<!DOCTYPE svg PUBLIC "-//W3C//DTD SVG 1.1//EN" "http://www.w3.org/Graphics/SVG/1.1/DTD/svg11.dtd">
<svg version="1.1" id="Layer_1" xmlns="http://www.w3.org/2000/svg" xmlns:xlink="http://www.w3.org/1999/xlink" x="0px" y="0px"
	 width="2360px" height="185px" viewBox="0 0 2360 185" enable-background="new 0 0 2360 185" xml:space="preserve">
<polygon points="26.197,157.073 2132.535,163.781 2317.677,20.678 26.197,27.386 "/>
<polygon fill="#009348" points="40.361,90.05 113.312,39.014 72.306,39.523 26.12,70.589 26.12,109.292 77.089,145 120.522,145 "/>
<polygon fill="#F16623" points="121.945,39.523 47.574,89.547 126.729,145 170.161,145 90.001,90.05 162.951,39.014 "/>
<polygon fill="#009348" points="172.925,39.523 98.555,89.547 177.71,145 221.142,145 140.982,90.05 213.933,39.014 "/>
<polygon fill="#F69220" stroke="#E2D2C3" stroke-width="1.3416" stroke-miterlimit="10" points="223.907,39.523 149.535,89.547 
	228.689,145 272.123,145 191.961,90.05 264.913,39.014 "/>
<polygon fill="#FFFFFF" points="274.888,39.523 200.516,89.547 279.67,145 323.103,145 242.943,90.05 315.894,39.014 "/>
<polygon fill="#F69220" points="632.009,39.523 706.38,89.547 627.226,145 583.792,145 663.954,90.05 591.002,39.014 "/>
<polygon fill="#009348" points="581.027,39.523 655.399,89.547 576.245,145 532.812,145 612.972,90.05 540.021,39.014 "/>
<polygon fill="#F16623" points="531.389,39.523 605.759,89.547 526.605,145 483.172,145 563.333,90.05 490.382,39.014 "/>
<polygon fill="#009348" points="480.408,39.523 554.779,89.547 475.625,145 432.191,145 512.352,90.05 439.401,39.014 "/>
<polygon fill="#F69220" points="429.427,39.523 503.798,89.547 424.644,145 381.21,145 461.372,90.05 388.421,39.014 "/>
<polygon fill="#FFFFFF" points="378.446,39.523 452.817,89.547 373.663,145 330.23,145 410.39,90.05 337.439,39.014 "/>
<polyline fill="#009348" points="260.419,89.882 325.487,39.014 394.579,89.882 327.5,136.838 261.811,92.006 "/>
<polygon fill="#009348" points="705.833,82.168 771.659,39.014 641.97,39.014 "/>
<polygon fill="#009348" points="708.517,95.852 641.549,145 776.579,145 "/>
<polygon fill="#F69220" points="783.436,39.523 709.064,89.547 788.219,145 831.652,145 751.491,90.05 824.442,39.014 "/>
<polygon fill="#009348" points="834.417,39.523 760.045,89.547 839.199,145 882.633,145 802.472,90.05 875.422,39.014 "/>
<polygon fill="#F16623" points="884.056,39.523 809.685,89.547 888.839,145 932.271,145 852.111,90.05 925.062,39.014 "/>
<polygon fill="#009348" points="935.036,39.523 860.665,89.547 939.819,145 983.253,145 903.093,90.05 976.043,39.014 "/>
<polygon fill="#F69220" points="986.017,39.523 911.646,89.547 990.8,145 1034.233,145 954.072,90.05 1027.024,39.014 "/>
<polygon fill="#FFFFFF" points="1036.999,39.523 962.627,89.547 1041.781,145 1085.214,145 1005.054,90.05 1078.004,39.014 "/>
<polygon fill="#F69220" points="1394.119,39.523 1468.491,89.547 1389.336,145 1345.903,145 1426.064,90.05 1353.112,39.014 "/>
<polygon fill="#009348" points="1343.138,39.523 1417.51,89.547 1338.355,145 1294.922,145 1375.083,90.05 1302.132,39.014 "/>
<polygon fill="#F16623" points="1293.499,39.523 1367.87,89.547 1288.715,145 1245.283,145 1325.443,90.05 1252.492,39.014 "/>
<polygon fill="#009348" points="1242.519,39.523 1316.89,89.547 1237.735,145 1194.302,145 1274.463,90.05 1201.512,39.014 "/>
<polygon fill="#F69220" points="1191.537,39.523 1265.909,89.547 1186.754,145 1143.321,145 1223.482,90.05 1150.531,39.014 "/>
<polygon fill="#FFFFFF" points="1140.557,39.523 1214.928,89.547 1135.773,145 1092.341,145 1172.501,90.05 1099.55,39.014 "/>
<polyline fill="#009348" points="1022.53,89.882 1087.598,39.014 1156.689,89.882 1089.61,136.838 1023.921,92.006 "/>
<polyline fill="#F69220" points="1042.248,89.307 1088.19,53.392 1136.972,89.307 1089.61,122.46 1043.231,90.807 "/>
<polyline fill="#F69220" points="280.137,89.307 326.079,53.392 374.862,89.307 327.5,122.46 281.12,90.807 "/>
<polygon fill="#009348" points="1467.944,82.168 1533.77,39.014 1404.08,39.014 "/>
<polygon fill="#009348" points="1470.627,95.852 1403.659,145 1538.689,145 "/>
<polygon fill="#F69220" points="1547.083,39.523 1472.711,89.547 1551.866,145 1595.299,145 1515.138,90.05 1588.089,39.014 "/>
<polygon fill="#009348" points="1598.064,39.523 1523.693,89.547 1602.848,145 1646.28,145 1566.12,90.05 1639.07,39.014 "/>
<polygon fill="#F16623" points="1647.703,39.523 1573.332,89.547 1652.486,145 1695.92,145 1615.758,90.05 1688.71,39.014 "/>
<polygon fill="#009348" points="1698.684,39.523 1624.313,89.547 1703.467,145 1746.9,145 1666.739,90.05 1739.689,39.014 "/>
<polygon fill="#F69220" points="1749.664,39.523 1675.294,89.547 1754.448,145 1797.881,145 1717.721,90.05 1790.671,39.014 "/>
<polygon fill="#FFFFFF" points="1800.645,39.523 1726.274,89.547 1805.43,145 1848.861,145 1768.701,90.05 1841.652,39.014 "/>
<polygon fill="#F69220" points="2157.768,39.523 2230.131,88.347 2157.202,144.715 2109.55,145 2189.711,90.05 2116.76,39.014 "/>
<polygon fill="#009348" points="2106.786,39.523 2181.156,89.547 2102.002,145 2058.568,145 2138.73,90.05 2065.779,39.014 "/>
<polygon fill="#F16623" points="2057.146,39.523 2131.518,89.547 2052.363,145 2008.93,145 2089.091,90.05 2016.141,39.014 "/>
<polygon fill="#009348" points="2006.166,39.523 2080.537,89.547 2001.382,145 1957.949,145 2038.109,90.05 1965.159,39.014 "/>
<polygon fill="#F69220" points="1955.186,39.523 2029.557,89.547 1950.401,145 1906.969,145 1987.129,90.05 1914.178,39.014 "/>
<polygon fill="#FFFFFF" points="1904.204,39.523 1978.576,89.547 1899.421,145 1855.988,145 1936.148,90.05 1863.197,39.014 "/>
<polyline fill="#009348" points="1786.177,89.882 1851.245,39.014 1920.338,89.882 1853.257,136.838 1787.569,92.006 "/>
<polygon fill="#009348" points="2234.839,84.707 2293.862,39.014 2167.728,39.014 "/>
<polyline fill="#F69220" points="1808.626,89.307 1854.567,53.392 1903.35,89.307 1855.988,122.46 1809.607,90.807 "/>
<polygon fill="#F69220" points="26.197,34.094 2300.319,34.094 2317.677,20.678 26.197,20.678 "/>
<polygon fill="#F69220" points="26.197,163.781 2132.535,163.781 2149.753,150.365 26.197,150.365 "/>
<path d="M2297.418,39.014"/>
<polyline fill="#009348" points="26.197,65.467 63.115,39.014 26.197,39.014 "/>
<polyline fill="#009348" points="26.197,116.155 66.916,145 26.197,145 "/>
</svg>
