<?xml version="1.0" encoding="utf-8"?>
<!-- Generator: Adobe Illustrator 16.0.0, SVG Export Plug-In . SVG Version: 6.00 Build 0)  -->
<!DOCTYPE svg PUBLIC "-//W3C//DTD SVG 1.1//EN" "http://www.w3.org/Graphics/SVG/1.1/DTD/svg11.dtd">
<svg version="1.1" id="Layer_1" xmlns="http://www.w3.org/2000/svg" xmlns:xlink="http://www.w3.org/1999/xlink" x="0px" y="0px"
	 width="1066.447px" height="410.979px" viewBox="0 0 1066.447 410.979" enable-background="new 0 0 1066.447 410.979"
	 xml:space="preserve">
<ellipse fill="#231F20" cx="217.193" cy="233.797" rx="97.099" ry="115.902"/>
<g>
	<path fill="#009245" d="M423.747,183.659l-0.873,0.35c0,0.115,0,0.057,0-0.178c0-0.23,0-0.523,0-0.873c0-0.115,0-0.26,0-0.438
		c0-0.174,0-0.314,0-0.434c0-0.115,0-0.234,0-0.352c0-0.23,0-0.492,0-0.785c0-0.289-0.062-0.492-0.177-0.611
		c0-0.35-0.06-0.697-0.174-1.045c-0.116-0.352-0.234-0.758-0.348-1.225c-0.119-0.113-0.205-0.232-0.263-0.35
		c-0.061-0.115-0.087-0.23-0.087-0.348l-0.175-1.051l0.175-0.35l-1.049-4.016l0.874-0.699l0.524,0.699l1.571,0.35l12.05-1.396
		l-0.174-9.082l0.174-7.859c0-0.59,0.058-1.205,0.175-1.855c0.115-0.65,0.232-1.385,0.35-2.211c0-0.709,0.057-1.387,0.174-2.037
		c0.116-0.648,0.176-1.326,0.176-2.035v-3.539l0.523,0.18l-0.523-1.947l1.048,0.348l-0.177-0.523l3.845,1.57
		c0.349,0.121,0.725,0.238,1.136,0.357c0.404,0.115,0.899,0.232,1.484,0.352c0.579,0,1.017,0.293,1.309,0.883
		c0.289,0.59,0.494,1.354,0.611,2.291c0.351,0.473,0.58,0.799,0.698,0.973c0.114,0.178,0.233,0.326,0.349,0.443
		c0.115,0.115,0.175,0.203,0.175,0.264s0.058,0.086,0.175,0.086c0,0.123,0.06,0.295,0.177,0.531
		c0.113,0.234,0.229,0.531,0.349,0.885c0,0.117,0.026,0.232,0.086,0.35c0.059,0.121,0.146,0.24,0.264,0.354
		c0,0.119,0.026,0.268,0.086,0.443c0.057,0.176,0.145,0.381,0.263,0.615c0,0.238,0.027,0.475,0.087,0.711
		c0.06,0.232,0.087,0.469,0.087,0.701l-0.522,6.18v3.318l-0.35,1.744l0.35,4.545v1.746l5.239-0.699c0.581,0,1.162-0.059,1.746-0.178
		c0.58-0.113,1.163-0.172,1.746-0.172c0.582-0.115,1.162-0.232,1.746-0.35c0.581-0.115,1.104-0.176,1.571-0.176
		c0.232,0,0.551,0.031,0.963,0.088c0.405,0.059,0.783,0.148,1.135,0.262c0.114,0,0.23,0.031,0.348,0.088
		c0.114,0.061,0.234,0.146,0.351,0.26l5.763,0.178l6.637,0.699c0.115-0.934,0.174-1.717,0.174-2.359c0-0.639,0-1.135,0-1.486
		c0.464-1.279,0.785-2.414,0.962-3.404c0.175-0.986,0.317-1.834,0.436-2.531c0-0.117,0.026-0.232,0.088-0.35
		c0.058-0.113,0.087-0.232,0.087-0.352v-1.57l-1.572-6.699c0-0.941,0.087-1.734,0.262-2.383c0.175-0.645,0.437-1.201,0.786-1.674
		c0.35-1.057,0.581-1.879,0.698-2.465c0.116-0.59,0.175-0.947,0.175-1.061v-3.883l0.523-1.746l-0.523-4.365l1.747,0.174l1.048,0.525
		c0.812,0.115,1.511,0.379,2.096,0.785c0.579,0.408,1.104,0.904,1.571,1.486c0.351,0.346,0.669,0.725,0.961,1.135
		c0.289,0.408,0.612,0.844,0.96,1.311v0.348c0.232,0.121,0.464,0.234,0.698,0.354c0.233,0.119,0.407,0.236,0.523,0.354
		c0.352,0.355,0.641,0.648,0.876,0.885c0.231,0.234,0.463,0.529,0.698,0.881c0.23,0.354,0.405,0.678,0.523,0.971
		c0.113,0.295,0.287,0.678,0.523,1.152l1.048,2.998v3.004l1.046,4.947v0.873l0.352,0.523v1.395
		c-0.118,0.352-0.205,0.672-0.264,0.963c-0.06,0.291-0.146,0.555-0.261,0.783c-0.234,0.701-0.438,1.34-0.61,1.924
		c-0.176,0.584-0.263,1.045-0.263,1.398c0,1.164,0,2.094,0,2.793c0,0.697,0,1.221,0,1.572c-0.118,0.465-0.174,0.873-0.174,1.221
		l-0.874,11.352v2.27l-1.571,9.258l-0.35,5.59c0,0.234,0,0.611,0,1.133c0,0.523-0.119,1.428-0.349,2.707v3.494l0.349,2.098
		l0.176,3.84c0.929,3.959,1.482,6.753,1.659,8.382c0.175,1.629,0.26,2.74,0.26,3.316v3.143c-0.35,0.236-0.669,0.383-0.961,0.439
		c-0.289,0.063-0.553,0.088-0.784,0.088l-2.271-2.621c-0.467-0.932-0.96-1.512-1.484-1.746c-0.522-0.232-1.078-0.35-1.658-0.35
		c-0.118,0-0.233,0-0.35,0c-0.118,0-0.233,0-0.349,0c-0.117,0-0.263,0-0.438,0c-0.173,0-0.321-0.053-0.437-0.176
		c-0.584-0.578-1.106-1.104-1.57-1.572l-0.175-0.17c-0.234-0.236-0.497-0.467-0.786-0.701c-0.292-0.232-0.498-0.408-0.612-0.523
		s-0.261-0.232-0.436-0.35s-0.32-0.174-0.437-0.174c-0.466-0.465-0.787-0.932-0.961-1.396c-0.175-0.465-0.322-1.162-0.438-2.1
		c0-0.111-0.03-0.287-0.087-0.521c-0.06-0.23-0.087-0.465-0.087-0.697l-0.174-4.541l-0.875-3.318l-0.174-3.668l0.525-5.59v-2.617
		l0.523-6.637l-0.35-4.891l-5.764-0.699c-0.235-0.115-0.467-0.203-0.7-0.264c-0.232-0.055-0.465-0.143-0.697-0.26
		c-0.698-0.115-1.456-0.203-2.271-0.264c-0.815-0.057-2.095-0.084-3.841-0.084c-0.817,0.465-1.573,0.783-2.271,0.959
		c-0.698,0.174-1.282,0.32-1.747,0.436c-0.117,0-0.234,0.029-0.35,0.086c-0.117,0.063-0.232,0.09-0.349,0.09s-0.235,0-0.35,0
		c-0.118,0-0.235,0-0.348,0c-0.119,0.115-0.206,0.205-0.264,0.262c-0.061,0.059-0.205,0.146-0.437,0.262l-3.667,0.348l-3.842,0.527
		l-0.527,2.441l0.178,2.969v3.494l-0.7,4.018c-0.233,0.348-0.379,0.641-0.436,0.873c-0.06,0.234-0.03,0.467,0.087,0.697
		c0,0.119,0,0.236,0,0.352s0,0.291,0,0.523c0.115,0.117,0.174,0.32,0.174,0.609c0,0.293,0,0.674,0,1.137
		c0,2.211-0.029,3.697-0.085,4.451c-0.06,0.76-0.264,1.311-0.611,1.662l0.696,0.35c0,1.396,0.028,2.531,0.089,3.404
		c0.056,0.873,0.201,1.66,0.438,2.355c0.113,0.236,0.229,0.469,0.349,0.699c0.113,0.236,0.231,0.467,0.35,0.701v0.697
		c0.23,0.117,0.376,0.26,0.436,0.438c0.06,0.174,0.087,0.377,0.087,0.609h-0.522c0,0.121,0,0.207,0,0.264
		c0,0.061-0.061,0.09-0.175,0.09c-0.118,0.578-0.295,0.931-0.523,1.044c-0.236,0.119-0.817,0.174-1.748,0.174l-0.523-0.871
		l-1.746-0.701c-0.234-0.115-0.437-0.201-0.611-0.258c-0.175-0.061-0.322-0.146-0.438-0.266h-0.174
		c-0.469-0.232-0.961-0.492-1.485-0.787c-0.523-0.287-1.251-0.785-2.184-1.482c-0.234,0-0.409-0.057-0.523-0.176
		c-0.117-0.115-0.173-0.232-0.173-0.35c-0.119-0.111-0.176-0.23-0.176-0.348l-0.524-2.619c0-0.234-0.117-1.191-0.35-2.883
		c-0.233-1.688-0.584-4.221-1.048-7.596l-0.174-3.67v-12.922l-0.874-0.523c-0.233,0.35-0.435,0.641-0.61,0.871
		c-0.177,0.236-0.321,0.412-0.438,0.527c-0.467,0.58-0.933,0.959-1.396,1.133c-0.467,0.176-1.165,0.264-2.096,0.264
		c-0.117,0-0.263,0-0.438,0c-0.173,0-0.321,0-0.436,0c-0.349,0-0.643,0-0.875,0c-0.234,0-0.522,0-0.871,0
		c-0.468,0-0.99-0.059-1.572-0.178c-0.585-0.111-1.222-0.287-1.922-0.523L423.747,183.659z"/>
	<path fill="#009245" d="M537.79,135.807c0.232,0.113,0.465,0.172,0.699,0.172c0.232,0,0.438-0.027,0.609-0.09
		c0.176-0.053,0.379-0.199,0.611-0.436c0.467,0.354,0.814,0.643,1.051,0.877h0.174c0.115,0,0.348,0.029,0.697,0.086
		c0.35,0.059,0.934,0.203,1.748,0.438l3.145,0.699h2.619l2.965,0.699l2.1,0.695l2.094,1.574l3.145,1.047
		c0.232,0.236,0.408,0.467,0.523,0.699c0.115,0.234,0.232,0.41,0.35,0.523c0.232,0.117,0.408,0.232,0.523,0.348
		c0.113,0.117,0.232,0.238,0.35,0.352c0.115,0.117,0.293,0.234,0.523,0.348c0.232,0.117,0.467,0.236,0.699,0.352l0.178,0.695
		c1.045,0.352,1.832,0.73,2.354,1.135c0.525,0.412,1.018,0.906,1.484,1.486c0.115,0,0.232,0.117,0.354,0.348
		c0.346,0.469,0.783,0.904,1.307,1.311c0.525,0.408,1.25,0.787,2.186,1.135l0.523,2.621l1.221,4.016l2.445,4.891l1.92,2.969
		l1.922,9.258l0.873,5.936v1.92l0.873,2.445l-0.699,0.178l1.225,1.922c0,0.115,0.025,0.203,0.086,0.26
		c0.059,0.061,0.088,0.148,0.088,0.264c0,0.467,0,1.164,0,2.094c0.463,2.096,0.814,3.492,1.047,4.193
		c0.232,0.697,0.35,1.281,0.35,1.744c0,0.117,0,0.236,0,0.352v1.57c0.115,0.119,0.174,0.236,0.174,0.348
		c0.115,0.119,0.176,0.262,0.176,0.438c0,0.174,0,0.438,0,0.785c0,0.35,0.088,0.729,0.262,1.137
		c0.176,0.408,0.492,1.021,0.963,1.832l0.348,2.969l0.523,7.688l1.225,0.873v2.793l-0.178,1.048
		c0.115,0.115,0.205,0.262,0.264,0.436c0.059,0.176,0.088,0.32,0.088,0.438c0.113,0.115,0.174,0.262,0.174,0.436s0,0.322,0,0.439
		v4.014l-0.348,3.145h-0.527c0,0.117-0.029,0.203-0.084,0.264c-0.061,0.059-0.148,0.086-0.266,0.086
		c-0.115,0.234-0.232,0.523-0.348,0.875c-0.117,0.346-0.176,0.697-0.176,1.047c0,0.232,0.059,0.494,0.176,0.787
		c0.115,0.291,0.348,0.609,0.697,0.957l-0.697,1.225v1.57l-0.523,1.574l-1.225-0.176l-2.793,1.047l0.174,1.047l-1.746,0.176
		c-0.348-0.115-0.641-0.203-0.873-0.26c-0.232-0.059-0.465-0.146-0.697-0.266c-0.117,0-0.293,0-0.525,0c-0.234,0-0.465,0-0.697,0
		l-0.348-0.697l-2.447-0.348l-3.145-1.576c-1.047-0.463-1.744-0.693-2.096-0.693c-0.348,0-0.584,0-0.697,0h-0.172
		c-0.121,0-0.238,0-0.354,0c-0.117-0.117-0.26-0.266-0.436-0.439c-0.172-0.174-0.32-0.375-0.436-0.611
		c-0.117-0.115-0.234-0.262-0.35-0.438c-0.115-0.172-0.172-0.314-0.172-0.434c-0.119-0.234-0.238-0.438-0.354-0.613
		c-0.117-0.174-0.174-0.32-0.174-0.436l-3.143-7.686l-1.574-5.937l-1.744-4.018l-1.748-6.637l-1.045-5.938l-0.701-0.35l-0.174-2.619
		l-1.396-4.016v-0.523l-0.699-5.066l-1.398-0.523l-2.27,1.223c-0.467,0-0.873,0-1.225,0c-0.346,0-0.695,0-1.045,0
		c-0.119,0-0.236,0.031-0.35,0.088c-0.117,0.061-0.293,0.088-0.523,0.088l-5.24,1.223l-8.906,0.174
		c-0.234,0.236-0.496,0.787-0.787,1.66s-0.846,3.172-1.66,6.896l-0.521,1.922l-1.049,2.619v2.621l-0.873,3.141l-0.523,3.146v1.395
		l-0.699,2.969l-0.524,3.843l-0.525,1.57l-0.523,2.971c0,0.117,0,0.236,0,0.352v0.172l-0.174,0.178c0,0.234-0.029,0.551-0.087,0.957
		c-0.058,0.412-0.263,0.904-0.611,1.484c-0.116,0-0.203,0-0.261,0c-0.063,0-0.148-0.057-0.263-0.174
		c-0.233-0.115-0.469-0.262-0.699-0.436c-0.235-0.174-0.585-0.438-1.049-0.787l-5.411-3.844l-0.175-1.047l-0.699-1.57l1.223-4.017
		l-0.349-2.621v-2.443h0.349c0.115-0.813,0.317-1.539,0.609-2.182c0.288-0.639,0.553-1.252,0.787-1.834
		c0.23-0.701,0.495-1.313,0.785-1.836c0.29-0.525,0.493-1.016,0.611-1.484c0.114-0.23,0.204-0.494,0.263-0.785
		c0.057-0.289,0.087-0.551,0.087-0.787l1.572-7.332l1.922-4.891c-0.352,0-0.73,0-1.137,0c-0.411,0-0.785,0-1.135,0
		c-1.981,0.115-3.666,0.203-5.063,0.262c-1.4,0.059-2.683,0.205-3.843,0.438c-0.584,0.115-1.195,0.262-1.835,0.436
		c-0.642,0.176-1.31,0.377-2.008,0.611l-2.445-0.699l-2.271,0.176l0.174-2.273l-2.619-3.492c0.118-0.115,0.204-0.199,0.263-0.26
		c0.059-0.057,0.086-0.145,0.086-0.262c0.237-0.23,0.585-0.438,1.049-0.613c0.466-0.172,1.222-0.26,2.271-0.26
		c0.23,0,0.493-0.027,0.785-0.088c0.29-0.057,0.551-0.145,0.785-0.264c1.162-0.115,2.414-0.26,3.756-0.436
		c1.337-0.176,3.286-0.32,5.852-0.438l8.904-0.348l1.573-4.543l0.875-4.016c0.23-0.699,0.404-1.369,0.521-2.008
		c0.115-0.639,0.291-1.193,0.523-1.658c0-0.35,0.059-0.639,0.176-0.875c0.117-0.23,0.174-0.465,0.174-0.697
		c0.35-1.051,0.785-2.184,1.311-3.408c0.523-1.223,1.25-2.764,2.186-4.627l0.869-3.492l1.223-2.969l0.354-1.922l1.219-2.617
		c0.115-0.465,0.262-0.902,0.439-1.311c0.174-0.408,0.375-0.902,0.611-1.486c0.348-0.699,0.637-1.482,0.873-2.357
		c0.23-0.871,0.348-1.949,0.348-3.229c0-0.467-0.088-0.875-0.264-1.223c-0.172-0.352-0.434-0.639-0.785-0.875
		c0-0.115,0-0.203,0-0.262c0-0.057-0.059-0.086-0.172-0.086c-0.119-0.234-0.264-0.498-0.438-0.789
		c-0.174-0.289-0.264-0.549-0.264-0.785l1.922-0.525C537.266,135.573,537.555,135.69,537.79,135.807z M543.813,156.325
		c-0.172,0.758-0.318,1.604-0.434,2.533c0,0.119-0.029,0.264-0.09,0.436c-0.059,0.176-0.088,0.326-0.088,0.439
		c-0.113,0.813-0.23,1.545-0.348,2.182c-0.117,0.643-0.35,1.135-0.699,1.482l-1.746,4.545l-2.096,3.49l-1.221,4.193l-2.621,4.189
		c0.35,0,0.699,0.031,1.049,0.086c0.348,0.061,0.756,0.148,1.223,0.264c0.465,0,0.93,0.031,1.398,0.088
		c0.461,0.061,0.928,0.146,1.395,0.26c0.232,0,0.438,0,0.613,0c0.172,0,0.375,0,0.611,0c0.113,0,0.262,0,0.436,0
		c0.172,0,0.318,0,0.436,0s0.264-0.027,0.438-0.086c0.176-0.057,0.32-0.088,0.436-0.088l8.383-0.35l-0.35-2.969
		c-0.115-0.115-0.205-0.35-0.26-0.699c-0.063-0.35-0.09-0.813-0.09-1.395c-0.113-1.162-0.289-2.648-0.521-4.453
		c-0.234-1.805-0.645-3.693-1.223-5.678c-0.117-0.348-0.234-0.668-0.35-0.959c-0.117-0.289-0.236-0.611-0.35-0.963l-2.797-8.381
		C544.368,154.958,543.989,155.569,543.813,156.325z"/>
	<path fill="#009245" d="M650.084,155.542c-0.117,0.115-0.234,0.234-0.35,0.348c-0.115,0.119-0.234,0.236-0.35,0.35
		c-0.234,0.35-0.379,0.729-0.436,1.133c-0.061,0.412-0.088,0.963-0.088,1.662c-0.117,0.586-0.236,1.021-0.348,1.311
		c-0.117,0.291-0.293,0.555-0.525,0.785c-0.115,0.234-0.291,0.436-0.525,0.609c-0.232,0.176-0.467,0.379-0.697,0.613l-1.574,2.27
		l-1.568,1.572l-1.051,1.748l-1.57,0.697c-0.465,0.115-0.871,0.291-1.221,0.525c-0.35,0.23-0.699,0.465-1.049,0.697
		c-0.117,0.115-0.234,0.174-0.35,0.174c-0.467,0.352-1.021,0.672-1.658,0.963c-0.641,0.287-1.545,0.434-2.707,0.434l7.684,1.398
		c0.582,0.115,1.076,0.203,1.484,0.262c0.408,0.061,0.787,0.148,1.135,0.262c0.467,0.234,0.932,0.467,1.398,0.699
		c0.465,0.234,1.104,0.582,1.922,1.047l7.334,5.064c0.35,0.234,0.67,0.467,0.959,0.699c0.291,0.234,0.611,0.467,0.961,0.697
		c1.049,0.701,2.037,1.514,2.969,2.447c0.932,0.932,1.746,1.861,2.445,2.795c0.582,0.697,1.076,1.426,1.486,2.182
		c0.406,0.758,0.725,1.428,0.961,2.008c0.229,0.348,0.463,0.672,0.699,0.961c0.229,0.293,0.404,0.609,0.523,0.959
		c0.582,0.934,1.047,2.037,1.396,3.318c0.348,1.283,0.523,3.262,0.523,5.938c0,0.119,0,0.238,0,0.35c0,0.117,0,0.236,0,0.348
		c0,0.701-0.029,1.432-0.088,2.184c-0.061,0.76-0.205,1.777-0.436,3.059l-3.145,6.459l-1.396,1.574
		c-0.586,0.814-1.049,1.514-1.398,2.096s-0.697,1.049-1.047,1.396c-0.236,0.232-0.467,0.438-0.699,0.613
		c-0.234,0.174-0.467,0.318-0.699,0.434l-6.637,4.543c-0.348,0.232-0.639,0.408-0.873,0.523c-0.234,0.117-0.467,0.232-0.695,0.35
		h-0.178c-0.35,0.234-0.814,0.465-1.396,0.697c-0.586,0.236-1.396,0.584-2.445,1.049l-1.396-0.348l-2.096,1.395l-2.795,2.445
		l-4.191,2.096l-1.746,1.572l-3.316,1.746l-1.922,1.572h-0.873c-0.119,0.113-0.205,0.232-0.264,0.35
		c-0.061,0.113-0.086,0.232-0.086,0.348c-0.234,0.354-0.467,0.611-0.701,0.787c-0.232,0.176-0.582,0.379-1.045,0.611
		c-0.119,0-0.205,0.025-0.264,0.086c-0.059,0.059-0.146,0.09-0.26,0.09l-0.35-1.221l-1.922-1.225
		c-0.117-0.119-0.293-0.176-0.523-0.176c-0.236,0-0.467,0-0.701,0v-0.176h-0.174c-0.465,0-0.961-0.027-1.484-0.086
		c-0.523-0.061-0.846-0.26-0.961-0.609l-0.871-3.67c0-0.115,0-0.201,0-0.262c0-0.059,0-0.146,0-0.262
		c-0.117-0.115-0.176-0.262-0.176-0.439c0-0.17,0-0.316,0-0.434s0-0.262,0-0.438c0-0.174,0.059-0.377,0.176-0.609
		c-0.117,0-0.176-0.057-0.176-0.176c-0.234,0-0.377-0.027-0.438-0.086c-0.061-0.061-0.146-0.143-0.26-0.262
		c-0.236-0.117-0.467-0.322-0.699-0.613c-0.236-0.289-0.586-0.725-1.049-1.309c-0.117,0-0.234-0.029-0.348-0.09
		c-0.119-0.057-0.236-0.086-0.35-0.086c-0.934-0.348-1.604-0.727-2.01-1.135c-0.408-0.404-0.729-1.018-0.961-1.834
		c0.117-0.23,0.203-0.436,0.262-0.611c0.059-0.174,0.088-0.375,0.088-0.611c0.115-0.23,0.176-0.436,0.176-0.613
		c0-0.17,0-0.375,0-0.609c0-0.35-0.029-0.697-0.088-1.051c-0.059-0.348-0.088-0.695-0.088-1.045
		c-0.117-0.35-0.203-0.668-0.262-0.961c-0.061-0.287-0.088-0.609-0.088-0.959c0-0.234,0.027-0.494,0.088-0.787
		c0.059-0.291,0.145-0.553,0.262-0.785l0.176-6.988l-1.223-16.414l-1.572-17.291l-0.35-2.793v-7.16l-1.572-6.289l-0.521-3.316
		c-0.236-1.279-0.381-2.328-0.439-3.145c-0.059-0.813-0.086-1.338-0.086-1.57l-0.699-5.414l-0.35-5.414l-4.541-1.57l-5.938-0.699
		l-2.969-1.223l-2.969-0.352c0.119-0.229,0.119-0.406,0-0.525c-0.115-0.113-0.23-0.229-0.352-0.346c-0.111,0-0.229-0.09-0.346-0.264
		c-0.115-0.174-0.234-0.318-0.35-0.436l-1.746-3.846l1.57-1.393l2.621-0.701l4.365-0.523l3.318,0.523l1.746-0.348l3.492-0.176
		l5.24,0.523l9.256-0.176l7.162,0.877c3.373,0.813,6.43,1.719,9.168,2.705c2.734,0.992,5.266,2.127,7.594,3.408
		c1.164,0.695,2.215,1.426,3.146,2.182c0.93,0.76,1.744,1.482,2.445,2.182c1.162,1.166,2.066,2.299,2.705,3.408
		c0.639,1.107,0.961,2.125,0.961,3.053c0,0.236,0,0.469,0,0.699c0,0.236,0.055,0.412,0.176,0.523c0,0.236,0,0.412,0,0.523
		c0,0.117,0,0.236,0,0.352c0,0.348-0.059,0.729-0.176,1.135c-0.115,0.408-0.408,1.078-0.871,2.01L650.084,155.542z M637.51,142.616
		l-3.318,0.176l-2.27,1.398l-2.793,1.047l-2.273-1.047c-0.115,0-0.232,0-0.348,0c-0.119,0-0.293,0.027-0.525,0.086
		s-0.408,0.148-0.521,0.262c-0.236,0.117-0.438,0.205-0.611,0.264c-0.176,0.059-0.381,0.084-0.611,0.084c-0.119,0-0.234,0-0.35,0
		c-0.117,0-0.234,0.063-0.35,0.176c-0.467,0.119-0.875,0.379-1.225,0.787c-0.348,0.41-0.582,0.902-0.697,1.482l2.096,11.352
		l0.176,2.098v3.145l1.047,2.27c2.795-1.279,5.414-2.881,7.859-4.803c2.443-1.922,4.48-3.869,6.113-5.85
		c1.396-1.514,2.471-3.057,3.23-4.631c0.754-1.57,1.135-2.938,1.135-4.104c0-0.229,0.027-0.463,0.088-0.699
		c0.055-0.229,0.086-0.406,0.086-0.523c0.115-0.23,0.203-0.404,0.262-0.523c0.059-0.113,0.027-0.232-0.086-0.348
		c0-0.115-0.088-0.234-0.262-0.352c-0.176-0.115-0.438-0.287-0.789-0.523L637.51,142.616z M627.034,190.469l0.346,16.766l1.225,7.16
		c0.348-0.232,0.668-0.408,0.961-0.523c0.289-0.115,0.551-0.232,0.785-0.35c0.232,0,0.465,0,0.699,0c0.23,0,0.465,0,0.699,0
		c0.348,0,0.695-0.029,1.047-0.09c0.35-0.057,0.699-0.199,1.049-0.434l1.746-2.445l3.143-1.225l1.746-2.094l3.145-2.969
		c0.23-0.115,0.438-0.291,0.611-0.523s0.379-0.408,0.611-0.525c1.746-1.631,3.346-3.553,4.803-5.764
		c1.455-2.209,2.182-4.654,2.182-7.334c0-0.23,0-0.525,0-0.873c0-0.35-0.059-0.699-0.174-1.047c-0.586-0.582-1.049-1.02-1.398-1.311
		c-0.348-0.291-0.582-0.551-0.697-0.787c-1.283-0.814-2.506-1.541-3.668-2.182c-1.166-0.639-2.039-0.963-2.619-0.963l-5.064-1.396
		h-0.875c-0.582-0.113-1.162-0.262-1.744-0.436c-0.584-0.176-1.109-0.32-1.572-0.438c-0.816-0.23-1.484-0.463-2.008-0.699
		c-0.523-0.23-0.846-0.348-0.961-0.348c-0.699,0-1.514,0.088-2.445,0.26c-0.932,0.176-1.863,0.498-2.793,0.963L627.034,190.469z"/>
	<path fill="#009245" d="M681.432,126.899c0.289,0.232,0.668,0.408,1.135,0.523c0.582,0.348,1.193,0.611,1.834,0.785
		c0.639,0.174,1.311,0.262,2.008,0.262h0.174l7.16,0.176l3.846,1.92l3.84,0.352l5.238-0.352l9.957,0.873l3.666,0.701l2.621,0.869
		l3.318,1.051l2.793,1.748c0.582,0.232,1.049,0.408,1.398,0.523c0.348,0.117,0.639,0.232,0.873,0.346
		c0.465,0.354,0.754,0.699,0.875,1.049c0.111,0.352,0.172,0.936,0.172,1.746c0,0.469,0,0.816,0,1.051
		c0,0.232,0.057,0.406,0.178,0.523c0.111,0.119,0.172,0.232,0.172,0.348v2.969l-1.572,1.574l-1.396-0.699l-0.699,0.523l-5.938,0.523
		l-2.969,0.523h-5.938l-5.24,1.223l0.174,3.668c0,0.35-0.059,0.641-0.174,0.875c-0.117,0.234-0.236,0.467-0.35,0.697
		c-0.117,0-0.174,0.061-0.174,0.174c-0.117,0.236-0.234,0.465-0.35,0.699c-0.117,0.234-0.174,0.467-0.174,0.699l-0.352,5.938
		l2.096,9.43c0.814,0.117,1.574,0.205,2.275,0.264c0.695,0.059,1.395,0.146,2.094,0.262c1.395,0.234,2.967,0.496,4.715,0.785
		c1.746,0.291,4.303,0.611,7.684,0.959l3.143,0.525c0.582,0.117,0.988,0.35,1.223,0.699c0.232,0.35,0.35,0.99,0.35,1.922
		l1.922,2.617v1.746c0,0.119-0.033,0.236-0.09,0.35c-0.059,0.119-0.146,0.234-0.26,0.35c-0.234,0.117-0.521,0.262-0.873,0.438
		c-0.35,0.174-0.699,0.322-1.049,0.436c-0.117,0-0.234,0-0.348,0c-0.117,0-0.236,0-0.35,0c-0.117,0-0.174,0.063-0.174,0.174
		c-0.117,0-0.236,0-0.352,0c-0.115,0.117-0.32,0.207-0.609,0.264c-0.293,0.061-0.73,0.088-1.311,0.088l-1.396,1.221l-2.621,0.873
		l-2.27-0.172l-4.189,1.221h-9.084l-1.398,2.271l1.398,3.316c0,0.699-0.117,1.719-0.348,3.057c-0.234,1.342-0.701,2.766-1.398,4.279
		c0.23,1.865,0.463,3.434,0.697,4.713c0.232,1.285,0.467,2.389,0.701,3.318c0.113,0.586,0.26,1.137,0.434,1.662
		c0.176,0.523,0.32,1.02,0.438,1.482c0.232,0.936,0.465,1.953,0.697,3.057c0.234,1.107,0.35,2.479,0.35,4.105
		c0.117,0,0.232,0,0.352,0c0.113,0,0.232,0,0.35,0c0.23,0,0.406,0,0.523,0c0.465,0,0.961,0.031,1.484,0.086
		c0.523,0.063,1.016,0.09,1.484,0.09c0.813,0.117,1.629,0.26,2.445,0.436c0.813,0.174,1.629,0.322,2.445,0.436
		c1.279,0.236,2.59,0.467,3.93,0.699c1.334,0.234,2.707,0.352,4.104,0.352c0.35,0,0.668,0.029,0.961,0.086
		c0.291,0.057,0.551,0.084,0.785,0.084c0.582,0,1.105,0.031,1.572,0.09c0.463,0.059,0.93,0.148,1.396,0.262
		c0.463,0.234,0.988,0.467,1.572,0.699c0.58,0.232,1.281,0.521,2.096,0.871l0.176,3.145l-1.748,0.871c0,0.236,0,0.439,0,0.613
		s0,0.322,0,0.438c-0.117,1.283-0.293,2.125-0.523,2.529c-0.236,0.414-0.871,0.613-1.922,0.613l-0.35,0.699l-1.57,0.35l-2.969,1.572
		l-6.986-2.271l-6.988-0.523l-0.871-0.521l-3.143-0.525l-2.098-0.697h-2.619c-0.117,0.346-0.41,0.611-0.873,0.783
		c-0.467,0.176-0.988,0.264-1.572,0.264c-0.117,0-0.293,0-0.521,0c-0.236,0-0.41,0-0.527,0c-0.582-0.117-1.133-0.264-1.658-0.436
		c-0.523-0.178-0.961-0.379-1.311-0.611c-0.115,0-0.26-0.027-0.436-0.088c-0.174-0.057-0.32-0.146-0.438-0.264
		c-0.115,0-0.203,0-0.262,0c-0.061,0-0.146,0-0.262,0c-0.117-0.115-0.234-0.176-0.348-0.176c-0.117,0-0.234,0-0.352,0
		c-0.232,0.117-0.467,0.236-0.697,0.35c-0.234,0.117-0.41,0.41-0.525,0.875c-0.234,0-0.436-0.115-0.611-0.352
		c-0.172-0.232-0.318-0.463-0.436-0.697c-0.232-0.232-0.436-0.465-0.611-0.699c-0.174-0.23-0.436-0.348-0.785-0.348
		c-0.234,0-0.379,0-0.438,0s-0.088,0.059-0.088,0.174c-0.115,0-0.174,0.061-0.174,0.174c-0.814-0.23-1.34-0.641-1.572-1.225
		c-0.232-0.58-0.35-1.801-0.35-3.666c0-0.111-0.029-0.174-0.086-0.174c-0.059,0-0.148-0.055-0.262-0.176
		c-0.467-0.58-0.816-1.336-1.049-2.268c-0.232-0.934-0.408-2.504-0.523-4.716c0-0.463-0.059-0.9-0.176-1.311
		c-0.117-0.404-0.232-0.787-0.348-1.133c-0.119-0.35-0.234-0.729-0.35-1.137c-0.117-0.406-0.174-0.727-0.174-0.963
		c0-0.229,0.027-0.436,0.086-0.607c0.059-0.176,0.146-0.322,0.262-0.438l-0.174-4.541l-0.35-3.318l-1.746-10.129
		c0-0.35-0.029-0.639-0.088-0.873c-0.061-0.232-0.088-0.523-0.088-0.875c-0.117-0.346-0.174-0.727-0.174-1.135
		c0-0.404,0-0.898,0-1.482c0-0.352,0-0.701,0-1.051s0.057-0.752,0.174-1.223c0-0.348,0-0.783,0-1.307s0-1.135,0-1.836
		c0-1.279,0-2.764,0-4.455c0-1.684-0.057-3.578-0.174-5.674l-0.697-7.336l0.697-4.539l0.523-5.762
		c-0.117-2.445-0.203-4.543-0.262-6.289c-0.061-1.746-0.088-3.318-0.088-4.715c-0.117-2.793-0.234-4.742-0.348-5.85
		c-0.117-1.105-0.41-2.066-0.873-2.883c-0.119-0.232-0.236-0.408-0.35-0.527l-0.873-2.094l0.697-1.221l-1.047-2.447
		C680.934,126.547,681.141,126.667,681.432,126.899z"/>
	<path fill="#009245" d="M780.717,119.387l3.318,4.369l5.063,4.537l2.621,3.494l3.49,4.191l1.223,1.574l2.271,5.238
		c0.352,0.232,0.639,0.729,0.877,1.484c0.227,0.76,0.459,1.604,0.695,2.531c0.115,0.816,0.232,1.574,0.35,2.27
		c0.115,0.697,0.176,1.223,0.176,1.576l-0.525,4.016c-0.236,0.234-0.436,0.406-0.611,0.521c-0.174,0.117-0.322,0.236-0.434,0.352
		c-0.469,0.348-0.994,0.553-1.574,0.611c-0.586,0.059-1.689,0.086-3.32,0.086c-0.35,0.35-0.697,0.609-1.049,0.785
		c-0.348,0.176-0.693,0.264-1.045,0.264c-0.467,0-0.932-0.115-1.396-0.352c-0.469-0.23-0.934-0.461-1.398-0.697
		c-0.465-0.35-0.959-0.639-1.484-0.875c-0.525-0.232-1.078-0.348-1.66-0.348c-0.115,0-0.232,0-0.348,0
		c-0.117,0-0.176,0.059-0.176,0.174c-0.117,0-0.234,0.031-0.348,0.088c-0.117,0.061-0.238,0.086-0.35,0.086l-2.793,1.572v0.523
		l-6.637,3.67c-3.379,2.684-5.764,4.932-7.162,6.742c-1.398,1.809-2.445,3.531-3.143,5.162c-0.236,0.469-0.438,0.936-0.611,1.404
		c-0.176,0.467-0.322,0.932-0.438,1.398l1.572,1.4l10.305,4.377l9.256,5.078l4.891,4.375l6.809,4.904
		c1.748,1.285,3.32,2.92,4.717,4.906c1.396,1.98,2.561,4.023,3.494,6.125c0.35,0.932,0.639,1.809,0.873,2.625
		c0.232,0.82,0.406,1.637,0.525,2.453l-0.875,0.35l0.875,2.627l-0.875,0.176l0.875,2.275l-0.525,0.701v2.273l-1.047,1.752
		c-0.469,0.121-0.76,0.266-0.875,0.436c-0.117,0.176-0.172,0.557-0.172,1.139l-1.924,2.105c-0.584,0.232-1.135,0.553-1.656,0.961
		c-0.527,0.408-0.906,0.846-1.141,1.314c-0.115,0.232-0.203,0.439-0.26,0.615c-0.059,0.17-0.086,0.32-0.086,0.434l-3.67,2.445
		l-1.572-0.174l-2.617,2.098l-1.574,0.523l-2.969,2.094l-2.443,1.922l-2.793,0.348l-0.873,1.225
		c-0.352-0.117-0.643-0.178-0.877-0.178c-0.232,0-0.465,0-0.697,0c-0.117,0-0.262,0.061-0.436,0.178
		c-0.176,0.111-0.379,0.287-0.611,0.521l-2.096-1.57c-0.117-0.236-0.236-0.465-0.35-0.699c-0.117-0.232-0.236-0.521-0.35-0.871
		c0-0.117-0.031-0.238-0.086-0.352c-0.061-0.117-0.088-0.232-0.088-0.35c-0.119-0.232-0.295-0.521-0.525-0.871
		c-0.234-0.35-0.523-0.641-0.873-0.873c0-0.115,0-0.234,0-0.352c0-0.582-0.146-1.047-0.438-1.396s-0.783-0.232-1.484,0.35v2.096
		h-0.873v-1.049h-0.697l-3.145-1.57l-0.873,1.398l-0.873-2.447h-2.445l-0.695-2.619l-1.75-1.404l0.525-2.271l2.443-1.406
		c0.582-0.58,1.076-1.047,1.486-1.398c0.404-0.35,0.725-0.643,0.959-0.877c0.234-0.115,0.465-0.201,0.699-0.262
		c0.23-0.057,0.523-0.146,0.871-0.266l3.494-2.449l1.574-0.529v-0.523c0.23-0.115,0.406-0.201,0.523-0.264
		c0.115-0.057,0.232-0.145,0.348-0.262c0.23,0,0.406-0.059,0.523-0.174c0.115-0.113,0.234-0.232,0.35-0.35
		c0.23-0.119,0.438-0.291,0.611-0.527c0.176-0.23,0.438-0.523,0.787-0.876c0.582-0.582,1.105-1.135,1.57-1.662
		c0.465-0.523,0.875-1.021,1.221-1.488c0.818-1.168,1.43-2.391,1.838-3.678c0.406-1.281,0.783-2.803,1.135-4.555l-0.523-0.703
		l-3.494-0.176l-8.732-2.977l-3.143-0.699c-0.699-0.348-1.398-0.701-2.098-1.051c-0.695-0.352-1.34-0.701-1.92-1.051
		c-3.029-1.633-5.707-3.561-8.033-5.779c-2.328-2.217-4.541-5.898-6.639-11.037c-0.348-0.584-0.641-1.195-0.871-1.84
		c-0.236-0.641-0.467-1.313-0.699-2.012l-1.572-6.482c-0.35-0.701-0.611-1.658-0.785-2.881c-0.176-1.225-0.262-2.707-0.262-4.453
		c0-0.813,0-1.572,0-2.273c0-0.695,0.057-1.395,0.176-2.094c0-1.279,0.086-2.59,0.26-3.932c0.176-1.334,0.377-2.996,0.611-4.973
		l1.572-2.447l1.57-3.492c0.117-0.113,0.203-0.264,0.264-0.438c0.057-0.174,0.146-0.375,0.262-0.611
		c0.35-0.697,0.725-1.367,1.135-2.008c0.406-0.639,0.844-1.311,1.309-2.01c0.582-0.58,1.311-1.25,2.186-2.008
		c0.873-0.756,1.891-1.543,3.057-2.357v-0.35c1.512-1.047,2.762-1.893,3.754-2.535c0.988-0.637,1.891-1.248,2.707-1.832
		c0.115,0,0.23-0.055,0.35-0.174c0.113-0.115,0.23-0.174,0.352-0.174c0.58-0.35,1.219-0.727,1.918-1.137
		c0.699-0.404,1.512-0.844,2.445-1.311l7.16-4.367c0.582-0.229,1.018-0.436,1.311-0.611c0.289-0.172,0.549-0.316,0.787-0.434
		l0.348-0.178c0.232-0.111,0.438-0.26,0.611-0.436c0.174-0.172,0.377-0.375,0.611-0.611l2.443-0.697L780.717,119.387z"/>
	<path fill="#009245" d="M846.209,142.792l2.617,2.969l1.92,4.191v1.398l1.047,2.27l0.178,2.969
		c-0.232,0.348-0.438,0.641-0.611,0.871c-0.176,0.236-0.322,0.41-0.438,0.523c-0.236,0.238-0.496,0.439-0.789,0.611
		c-0.285,0.176-0.725,0.324-1.307,0.439c-0.469,0.115-0.902,0.232-1.307,0.348c-0.412,0.119-0.787,0.238-1.139,0.352
		c-0.232,0.115-0.408,0.203-0.523,0.26c-0.117,0.063-0.293,0.088-0.525,0.088c-0.584,0.348-1.281,0.699-2.094,1.049
		c-0.814,0.35-1.863,0.816-3.143,1.398l-0.523,0.174l-2.098,1.746l-0.695,0.174l-1.4,1.396l-2.268,0.875l-0.875,1.049
		c-1.514,0.932-2.766,2.445-3.758,4.537c-0.99,2.098-1.543,4.313-1.658,6.639c-0.117,0.348-0.176,0.672-0.176,0.959
		c0,0.293,0,0.611,0,0.963v6.986c0,0.813,0.176,1.717,0.527,2.705c0.348,0.99,0.811,2.008,1.396,3.055
		c1.16,1.746,2.619,3.436,4.365,5.064c1.748,1.635,3.551,2.914,5.414,3.842l14.668,5.939l1.053,1.223l0.871,0.521l0.699,1.049
		l1.047,0.35l0.523,1.57c-0.115,0.352-0.318,0.672-0.611,0.963c-0.291,0.291-0.555,0.496-0.783,0.611
		c-0.119,0-0.236,0.031-0.35,0.088c-0.119,0.061-0.234,0.09-0.35,0.09c-0.236,0-0.438,0-0.611,0c-0.176,0-0.324-0.059-0.436-0.178
		c-0.119,0-0.207,0-0.264,0c-0.061,0-0.148,0-0.264,0c-0.232,0-0.436,0.031-0.611,0.088c-0.172,0.061-0.322,0.09-0.436,0.09
		c-0.117,0-0.291,0.057-0.523,0.17c-0.232,0.119-0.438,0.178-0.611,0.178c-0.176,0-0.379,0-0.613,0
		c-0.117,0-0.287-0.027-0.523-0.088c-0.234-0.059-0.521-0.148-0.871-0.26c-0.117,0-0.262-0.029-0.438-0.09
		c-0.174-0.057-0.377-0.088-0.611-0.088c-1.631-0.58-2.881-1.018-3.754-1.311c-0.875-0.291-1.66-0.609-2.361-0.961
		c-0.113,0-0.232-0.055-0.348-0.176c-0.234-0.113-0.465-0.23-0.699-0.346c-0.232-0.115-0.521-0.232-0.871-0.352l-4.367-2.969
		c-0.234-0.113-0.467-0.26-0.699-0.436c-0.232-0.174-0.465-0.32-0.699-0.436c-1.279-0.932-2.559-1.979-3.84-3.145
		c-1.283-1.162-2.445-2.326-3.492-3.492c-0.818-1.049-1.547-2.01-2.186-2.885c-0.641-0.873-1.135-1.717-1.482-2.529l-4.02-9.258
		l-1.219-2.795v-0.35h-0.352c-0.348-1.047-0.641-1.945-0.871-2.707c-0.236-0.756-0.41-1.539-0.525-2.355
		c-0.117-0.814-0.205-1.627-0.26-2.447c-0.063-0.813-0.088-1.801-0.088-2.967c0-0.23,0-0.496,0-0.783c0-0.291,0-0.611,0-0.965
		c0.23-2.793,0.754-5.441,1.568-7.943c0.814-2.504,1.805-4.455,2.971-5.854c0-0.113,0.057-0.172,0.176-0.172v-0.176
		c0-0.115,0.055-0.232,0.174-0.348c0.115-0.115,0.229-0.176,0.35-0.176l0.873-1.92l2.096-2.621l1.744-2.617h0.877v-0.701h0.521
		c0.699-0.699,1.281-1.311,1.748-1.836c0.461-0.523,0.873-0.957,1.223-1.309c0.348-0.23,0.725-0.463,1.135-0.699
		c0.406-0.23,0.844-0.461,1.309-0.695c0.348-0.115,0.727-0.264,1.135-0.439c0.406-0.172,0.902-0.373,1.488-0.611v-0.348
		c0.928-0.35,1.771-0.639,2.529-0.875c0.756-0.23,1.367-0.348,1.834-0.348c0.113-0.115,0.201-0.176,0.262-0.176
		c0.059,0,0.146-0.057,0.264-0.172c0.109,0,0.348,0,0.695,0l2.621-1.223h0.525L846.209,142.792z"/>
	<path fill="#009245" d="M863.319,183.659l-0.869,0.35c0,0.115,0,0.057,0-0.178c0-0.23,0-0.523,0-0.873c0-0.115,0-0.26,0-0.438
		c0-0.174,0-0.314,0-0.434c0-0.115,0-0.234,0-0.352c0-0.23,0-0.492,0-0.785c0-0.289-0.063-0.492-0.178-0.611
		c0-0.35-0.063-0.697-0.172-1.045c-0.121-0.352-0.236-0.758-0.35-1.225c-0.117-0.113-0.207-0.232-0.264-0.35
		c-0.061-0.115-0.088-0.23-0.088-0.348l-0.174-1.051l0.174-0.35l-1.047-4.016l0.873-0.699l0.525,0.699l1.568,0.35l12.051-1.396
		l-0.174-9.082l0.174-7.859c0-0.59,0.059-1.205,0.178-1.855c0.115-0.65,0.23-1.385,0.348-2.211c0-0.709,0.057-1.387,0.174-2.037
		c0.117-0.648,0.176-1.326,0.176-2.035v-3.539l0.525,0.18l-0.525-1.947l1.049,0.348l-0.176-0.523l3.844,1.57
		c0.346,0.121,0.721,0.238,1.135,0.357c0.406,0.115,0.896,0.232,1.482,0.352c0.582,0,1.02,0.293,1.311,0.883
		s0.492,1.354,0.611,2.291c0.348,0.473,0.58,0.799,0.699,0.973c0.115,0.178,0.232,0.326,0.346,0.443
		c0.119,0.115,0.178,0.203,0.178,0.264s0.057,0.086,0.176,0.086c0,0.123,0.057,0.295,0.174,0.531c0.113,0.234,0.23,0.531,0.35,0.885
		c0,0.117,0.025,0.232,0.088,0.35c0.059,0.121,0.141,0.24,0.262,0.354c0,0.119,0.025,0.268,0.084,0.443s0.146,0.381,0.266,0.615
		c0,0.238,0.025,0.475,0.086,0.711c0.055,0.232,0.086,0.469,0.086,0.701l-0.521,6.18v3.318l-0.35,1.744l0.35,4.545v1.746
		l5.234-0.699c0.586,0,1.166-0.059,1.75-0.178c0.58-0.113,1.164-0.172,1.748-0.172c0.58-0.115,1.162-0.232,1.744-0.35
		c0.58-0.115,1.107-0.176,1.572-0.176c0.232,0,0.549,0.031,0.961,0.088c0.406,0.059,0.783,0.148,1.135,0.262
		c0.111,0,0.232,0.031,0.35,0.088c0.115,0.061,0.232,0.146,0.348,0.26l5.762,0.178l6.641,0.699c0.111-0.934,0.172-1.717,0.172-2.359
		c0-0.639,0-1.135,0-1.486c0.465-1.279,0.787-2.414,0.963-3.404c0.17-0.986,0.316-1.834,0.434-2.531c0-0.117,0.031-0.232,0.09-0.35
		c0.057-0.113,0.09-0.232,0.09-0.352v-1.57l-1.576-6.699c0-0.941,0.088-1.734,0.266-2.383c0.174-0.645,0.434-1.201,0.787-1.674
		c0.344-1.057,0.578-1.879,0.693-2.465c0.115-0.59,0.178-0.947,0.178-1.061v-3.883l0.521-1.746l-0.521-4.365l1.742,0.174
		l1.049,0.525c0.813,0.115,1.514,0.379,2.098,0.785c0.58,0.408,1.104,0.904,1.57,1.486c0.352,0.346,0.668,0.725,0.961,1.135
		c0.289,0.408,0.613,0.844,0.961,1.311v0.348c0.232,0.121,0.463,0.234,0.697,0.354s0.406,0.236,0.527,0.354
		c0.348,0.355,0.635,0.648,0.873,0.885c0.23,0.234,0.463,0.529,0.697,0.881c0.232,0.354,0.408,0.678,0.521,0.971
		c0.115,0.295,0.289,0.678,0.527,1.152l1.047,2.998v3.004l1.047,4.947v0.873l0.348,0.523v1.395c-0.115,0.352-0.203,0.672-0.26,0.963
		c-0.059,0.291-0.148,0.555-0.264,0.783c-0.232,0.701-0.436,1.34-0.613,1.924c-0.168,0.584-0.258,1.045-0.258,1.398
		c0,1.164,0,2.094,0,2.793c0,0.697,0,1.221,0,1.572c-0.117,0.465-0.176,0.873-0.176,1.221l-0.871,11.352v2.27l-1.574,9.258
		l-0.35,5.59c0,0.234,0,0.611,0,1.133c0,0.523-0.115,1.428-0.348,2.707v3.494l0.348,2.098l0.178,3.84
		c0.93,3.959,1.482,6.753,1.658,8.382c0.172,1.629,0.26,2.74,0.26,3.316v3.143c-0.35,0.236-0.672,0.383-0.959,0.439
		c-0.295,0.063-0.555,0.088-0.787,0.088l-2.27-2.621c-0.467-0.932-0.961-1.512-1.482-1.746c-0.527-0.232-1.08-0.35-1.662-0.35
		c-0.117,0-0.232,0-0.348,0c-0.117,0-0.236,0-0.352,0s-0.262,0-0.436,0c-0.176,0-0.32-0.053-0.436-0.176
		c-0.584-0.578-1.109-1.104-1.572-1.572l-0.176-0.17c-0.234-0.236-0.496-0.467-0.785-0.701c-0.291-0.232-0.498-0.408-0.611-0.523
		c-0.119-0.115-0.262-0.232-0.436-0.35c-0.176-0.117-0.322-0.174-0.434-0.174c-0.471-0.465-0.789-0.932-0.965-1.396
		c-0.172-0.465-0.32-1.162-0.436-2.1c0-0.111-0.031-0.287-0.088-0.521c-0.061-0.23-0.088-0.465-0.088-0.697l-0.172-4.541
		l-0.877-3.318l-0.174-3.668l0.523-5.59v-2.617l0.527-6.637l-0.352-4.891l-5.764-0.699c-0.236-0.115-0.465-0.203-0.697-0.264
		c-0.236-0.055-0.467-0.143-0.699-0.26c-0.699-0.115-1.455-0.203-2.27-0.264c-0.816-0.057-2.098-0.084-3.846-0.084
		c-0.813,0.465-1.568,0.783-2.27,0.959c-0.697,0.174-1.281,0.32-1.744,0.436c-0.119,0-0.234,0.029-0.348,0.086
		c-0.119,0.063-0.236,0.09-0.354,0.09c-0.115,0-0.232,0-0.346,0c-0.121,0-0.238,0-0.354,0c-0.115,0.115-0.201,0.205-0.258,0.262
		c-0.061,0.059-0.207,0.146-0.436,0.262l-3.666,0.348l-3.844,0.527l-0.525,2.441l0.176,2.969v3.494l-0.699,4.018
		c-0.236,0.348-0.379,0.641-0.436,0.873c-0.061,0.234-0.029,0.467,0.088,0.697c0,0.119,0,0.236,0,0.352s0,0.291,0,0.523
		c0.111,0.117,0.17,0.32,0.17,0.609c0,0.293,0,0.674,0,1.137c0,2.211-0.029,3.697-0.086,4.451c-0.055,0.76-0.26,1.311-0.611,1.662
		l0.697,0.35c0,1.396,0.029,2.531,0.09,3.404c0.057,0.873,0.203,1.66,0.438,2.355c0.113,0.236,0.23,0.469,0.35,0.699
		c0.113,0.236,0.229,0.467,0.35,0.701v0.697c0.23,0.117,0.375,0.26,0.436,0.438c0.055,0.174,0.086,0.377,0.086,0.609h-0.521
		c0,0.121,0,0.207,0,0.264c0,0.061-0.063,0.09-0.176,0.09c-0.117,0.578-0.293,0.931-0.523,1.044
		c-0.234,0.119-0.814,0.174-1.748,0.174l-0.523-0.871l-1.748-0.701c-0.23-0.115-0.434-0.201-0.611-0.258
		c-0.176-0.061-0.32-0.146-0.434-0.266h-0.178c-0.463-0.232-0.959-0.492-1.482-0.787c-0.523-0.287-1.252-0.785-2.184-1.482
		c-0.232,0-0.41-0.057-0.523-0.176c-0.119-0.115-0.176-0.232-0.176-0.35c-0.113-0.111-0.172-0.23-0.172-0.348l-0.523-2.619
		c0-0.234-0.119-1.191-0.352-2.883c-0.232-1.688-0.584-4.221-1.049-7.596l-0.174-3.67v-12.922l-0.871-0.523
		c-0.238,0.35-0.439,0.641-0.611,0.871c-0.176,0.236-0.324,0.412-0.436,0.527c-0.471,0.58-0.936,0.959-1.4,1.133
		c-0.465,0.176-1.166,0.264-2.096,0.264c-0.115,0-0.26,0-0.438,0c-0.174,0-0.32,0-0.434,0c-0.352,0-0.645,0-0.877,0
		c-0.23,0-0.523,0-0.871,0c-0.467,0-0.992-0.059-1.572-0.178c-0.584-0.111-1.225-0.287-1.92-0.523L863.319,183.659z"/>
	<path fill="#009245" d="M977.362,135.807c0.232,0.113,0.461,0.172,0.697,0.172c0.234,0,0.439-0.027,0.613-0.09
		c0.176-0.053,0.375-0.199,0.611-0.436c0.463,0.354,0.814,0.643,1.047,0.877h0.176c0.115,0,0.348,0.029,0.701,0.086
		c0.348,0.059,0.926,0.203,1.744,0.438l3.141,0.699h2.623l2.969,0.699l2.096,0.695l2.094,1.574l3.146,1.047
		c0.229,0.236,0.404,0.467,0.525,0.699c0.111,0.234,0.229,0.41,0.346,0.523c0.23,0.117,0.408,0.232,0.521,0.348
		c0.117,0.117,0.234,0.238,0.352,0.352c0.115,0.117,0.287,0.234,0.523,0.348c0.234,0.117,0.463,0.236,0.699,0.352l0.176,0.695
		c1.047,0.352,1.832,0.73,2.359,1.135c0.521,0.412,1.016,0.906,1.482,1.486c0.115,0,0.232,0.117,0.352,0.348
		c0.348,0.469,0.783,0.904,1.307,1.311c0.525,0.408,1.25,0.787,2.184,1.135l0.523,2.621l1.223,4.016l2.445,4.891l1.918,2.969
		l1.924,9.258l0.875,5.936v1.92l0.871,2.445l-0.699,0.178l1.223,1.922c0,0.115,0.025,0.203,0.088,0.26
		c0.057,0.061,0.088,0.148,0.088,0.264c0,0.467,0,1.164,0,2.094c0.463,2.096,0.814,3.492,1.047,4.193
		c0.234,0.697,0.352,1.281,0.352,1.744c0,0.117,0,0.236,0,0.352v1.57c0.113,0.119,0.172,0.236,0.172,0.348
		c0.113,0.119,0.174,0.262,0.174,0.438c0,0.174,0,0.438,0,0.785c0,0.35,0.09,0.729,0.266,1.137c0.172,0.408,0.494,1.021,0.957,1.832
		l0.354,2.969l0.523,7.688l1.225,0.873v2.793l-0.178,1.048c0.115,0.115,0.201,0.262,0.26,0.436c0.057,0.176,0.088,0.32,0.088,0.438
		c0.117,0.115,0.178,0.262,0.178,0.436s0,0.322,0,0.439v4.014l-0.348,3.145h-0.525c0,0.117-0.031,0.203-0.088,0.264
		c-0.061,0.059-0.148,0.086-0.264,0.086c-0.119,0.234-0.232,0.523-0.348,0.875c-0.119,0.346-0.176,0.697-0.176,1.047
		c0,0.232,0.057,0.494,0.176,0.787c0.115,0.291,0.348,0.609,0.699,0.957l-0.699,1.225v1.57l-0.523,1.574l-1.225-0.176l-2.795,1.047
		l0.174,1.047l-1.742,0.176c-0.352-0.115-0.645-0.203-0.877-0.26c-0.232-0.059-0.467-0.146-0.695-0.266c-0.119,0-0.295,0-0.529,0
		c-0.23,0-0.467,0-0.695,0l-0.35-0.697l-2.447-0.348l-3.141-1.576c-1.051-0.463-1.748-0.693-2.096-0.693s-0.586,0-0.699,0h-0.172
		c-0.119,0-0.236,0-0.352,0c-0.119-0.117-0.262-0.266-0.436-0.439c-0.176-0.174-0.324-0.375-0.438-0.611
		c-0.119-0.115-0.234-0.262-0.352-0.438c-0.117-0.172-0.174-0.314-0.174-0.434c-0.115-0.234-0.234-0.438-0.35-0.613
		c-0.115-0.174-0.176-0.32-0.176-0.436l-3.143-7.686l-1.57-5.937l-1.746-4.018l-1.748-6.637l-1.047-5.938l-0.697-0.35l-0.178-2.619
		l-1.395-4.016v-0.523l-0.699-5.066l-1.398-0.523l-2.27,1.223c-0.465,0-0.875,0-1.223,0s-0.699,0-1.049,0
		c-0.115,0-0.234,0.031-0.352,0.088c-0.113,0.061-0.287,0.088-0.521,0.088l-5.238,1.223l-8.906,0.174
		c-0.236,0.236-0.496,0.787-0.787,1.66s-0.844,3.172-1.658,6.896l-0.523,1.922l-1.047,2.619v2.621l-0.877,3.141l-0.523,3.146v1.395
		l-0.697,2.969l-0.523,3.843l-0.525,1.57l-0.521,2.971c0,0.117,0,0.236,0,0.352v0.172l-0.176,0.178c0,0.234-0.031,0.551-0.088,0.957
		c-0.061,0.412-0.26,0.904-0.611,1.484c-0.119,0-0.203,0-0.26,0c-0.061,0-0.148-0.057-0.264-0.174
		c-0.234-0.115-0.465-0.262-0.699-0.436c-0.232-0.174-0.584-0.438-1.049-0.787l-5.412-3.844l-0.174-1.047l-0.697-1.57l1.221-4.017
		l-0.35-2.621v-2.443h0.35c0.111-0.813,0.318-1.539,0.611-2.182c0.287-0.639,0.551-1.252,0.783-1.834
		c0.234-0.701,0.494-1.313,0.787-1.836c0.289-0.525,0.496-1.016,0.611-1.484c0.117-0.23,0.203-0.494,0.262-0.785
		c0.057-0.289,0.086-0.551,0.086-0.787l1.574-7.332l1.92-4.891c-0.348,0-0.727,0-1.135,0s-0.785,0-1.135,0
		c-1.979,0.115-3.668,0.203-5.064,0.262s-2.682,0.205-3.844,0.438c-0.582,0.115-1.193,0.262-1.834,0.436
		c-0.641,0.176-1.311,0.377-2.006,0.611l-2.445-0.699l-2.273,0.176l0.178-2.273l-2.619-3.492c0.115-0.115,0.203-0.199,0.26-0.26
		c0.061-0.057,0.088-0.145,0.088-0.262c0.234-0.23,0.584-0.438,1.047-0.613c0.467-0.172,1.225-0.26,2.271-0.26
		c0.232,0,0.496-0.027,0.787-0.088c0.289-0.057,0.549-0.145,0.785-0.264c1.162-0.115,2.416-0.26,3.756-0.436
		c1.334-0.176,3.287-0.32,5.85-0.438l8.908-0.348l1.57-4.543l0.873-4.016c0.23-0.699,0.408-1.369,0.523-2.008
		s0.287-1.193,0.525-1.658c0-0.35,0.059-0.639,0.176-0.875c0.113-0.23,0.17-0.465,0.17-0.697c0.352-1.051,0.789-2.184,1.313-3.408
		c0.523-1.223,1.25-2.764,2.186-4.627l0.871-3.492l1.225-2.969l0.348-1.922l1.221-2.617c0.113-0.465,0.264-0.902,0.439-1.311
		c0.172-0.408,0.375-0.902,0.609-1.486c0.35-0.699,0.639-1.482,0.873-2.357c0.234-0.871,0.352-1.949,0.352-3.229
		c0-0.467-0.09-0.875-0.264-1.223c-0.176-0.352-0.436-0.639-0.787-0.875c0-0.115,0-0.203,0-0.262c0-0.057-0.061-0.086-0.174-0.086
		c-0.117-0.234-0.262-0.498-0.438-0.789c-0.172-0.289-0.262-0.549-0.262-0.785l1.924-0.525
		C976.838,135.573,977.131,135.69,977.362,135.807z M983.385,156.325c-0.172,0.758-0.318,1.604-0.434,2.533
		c0,0.119-0.031,0.264-0.088,0.436c-0.061,0.176-0.088,0.326-0.088,0.439c-0.117,0.813-0.234,1.545-0.35,2.182
		c-0.117,0.643-0.35,1.135-0.699,1.482l-1.744,4.545l-2.098,3.49l-1.223,4.193l-2.619,4.189c0.348,0,0.697,0.031,1.047,0.086
		c0.35,0.061,0.76,0.148,1.225,0.264c0.463,0,0.93,0.031,1.398,0.088c0.463,0.061,0.928,0.146,1.396,0.26c0.23,0,0.434,0,0.609,0
		c0.178,0,0.379,0,0.611,0c0.117,0,0.264,0,0.436,0c0.178,0,0.322,0,0.441,0c0.111,0,0.258-0.027,0.434-0.086
		c0.174-0.057,0.316-0.088,0.436-0.088l8.383-0.35l-0.348-2.969c-0.119-0.115-0.207-0.35-0.262-0.699
		c-0.063-0.35-0.09-0.813-0.09-1.395c-0.115-1.162-0.289-2.648-0.523-4.453c-0.232-1.805-0.643-3.693-1.221-5.678
		c-0.121-0.348-0.234-0.668-0.348-0.959c-0.119-0.289-0.236-0.611-0.354-0.963l-2.793-8.381
		C983.938,154.958,983.563,155.569,983.385,156.325z"/>
</g>
<g>
	<path d="M436.1,257.588h5.421l7.466,30.188c0.073,0.316,0.165,0.867,0.28,1.645c0.116,0.781,0.244,1.789,0.387,3.029
		c0.068-0.938,0.154-1.785,0.251-2.535c0.097-0.754,0.21-1.396,0.333-1.928l7.732-30.398h6.854l7.733,30.426
		c0.123,0.527,0.239,1.18,0.347,1.939c0.105,0.762,0.203,1.596,0.292,2.496c0.088-0.957,0.186-1.828,0.291-2.617
		c0.108-0.785,0.194-1.34,0.266-1.658l7.786-30.586h4.996l-10.177,37.76h-6.644l-7.945-30.826c-0.105-0.441-0.203-1.035-0.292-1.781
		c-0.09-0.74-0.17-1.566-0.238-2.471c-0.16,1.508-0.28,2.561-0.359,3.164c-0.08,0.602-0.146,0.975-0.199,1.117l-7.892,30.797h-6.748
		L436.1,257.588z"/>
	<path d="M502.466,257.588h20.436v4.066h-15.148v11.982h14.323v4.254h-14.323v13.096h15.652v4.361h-20.939V257.588z"/>
	<path d="M542.473,257.588h10.123c4.094,0,7.254,0.834,9.488,2.498c2.229,1.664,3.348,4.004,3.348,7.014
		c0,2.092-0.596,3.857-1.781,5.303c-1.188,1.443-2.914,2.467-5.182,3.07c2.621,0.633,4.619,1.748,5.992,3.332
		c1.371,1.584,2.059,3.582,2.059,5.992c0,3.352-1.207,5.943-3.613,7.787c-2.408,1.84-5.83,2.764-10.26,2.764h-10.174V257.588z
		 M547.708,261.707v12.037h3.852c2.73,0,4.818-0.531,6.271-1.594c1.451-1.063,2.18-2.58,2.18-4.545c0-1.912-0.682-3.373-2.047-4.385
		s-3.33-1.514-5.896-1.514H547.708z M547.708,277.836v13.207h4.014c3.063,0,5.379-0.568,6.947-1.701
		c1.568-1.135,2.354-2.801,2.354-4.996c0-2.143-0.729-3.766-2.18-4.865c-1.453-1.094-3.607-1.645-6.459-1.645H547.708z"/>
	<path d="M624.825,275.365l8.875,9.592c0.99-1.383,1.768-2.934,2.324-4.65c0.559-1.719,0.891-3.58,0.998-5.58h4.516
		c-0.105,2.568-0.563,4.973-1.367,7.217c-0.805,2.24-1.963,4.314-3.469,6.23l6.617,7.174h-6.244l-3.537-3.908
		c-1.559,1.527-3.289,2.666-5.193,3.428c-1.902,0.764-3.982,1.145-6.23,1.145c-3.773,0-6.82-1.002-9.141-3.004
		c-2.322-2.004-3.48-4.613-3.48-7.84c0-2.41,0.689-4.516,2.072-6.322s3.445-3.287,6.191-4.439c-1.576-1.646-2.732-3.186-3.469-4.621
		c-0.734-1.436-1.104-2.873-1.104-4.307c0-2.531,0.953-4.592,2.859-6.178c1.902-1.584,4.396-2.377,7.479-2.377
		c3.029,0,5.455,0.748,7.279,2.246c1.826,1.498,2.736,3.486,2.736,5.963c0,2.127-0.721,4.041-2.164,5.742
		C629.93,272.574,627.747,274.072,624.825,275.365z M620.52,277.277c-1.896,0.885-3.359,2.002-4.385,3.35
		c-1.029,1.346-1.541,2.826-1.541,4.436c0,2.004,0.76,3.68,2.285,5.035c1.521,1.357,3.428,2.035,5.715,2.035
		c1.592,0,3.064-0.316,4.422-0.945c1.355-0.629,2.582-1.563,3.682-2.803L620.52,277.277z M622.274,272.6
		c2.18-0.938,3.83-1.994,4.955-3.176c1.125-1.178,1.688-2.438,1.688-3.785c0-1.416-0.512-2.578-1.527-3.48
		c-1.021-0.904-2.346-1.355-3.973-1.355c-1.611,0-2.922,0.451-3.934,1.355c-1.008,0.902-1.514,2.064-1.514,3.48
		c0,1.01,0.309,2.033,0.93,3.068C619.518,269.744,620.645,271.041,622.274,272.6z"/>
	<path d="M686.319,257.588h5.287v37.76h-5.287V257.588z"/>
	<path d="M711.846,257.588h6.643l16.42,29.387c0.23,0.428,0.508,1.078,0.836,1.955s0.67,1.91,1.023,3.096
		c-0.23-1.383-0.408-2.625-0.531-3.732s-0.186-2.061-0.186-2.857v-27.848h4.861v37.76h-6.482l-16.713-29.654
		c-0.213-0.354-0.471-0.955-0.773-1.795c-0.301-0.84-0.635-1.936-1.008-3.281c0.264,2.02,0.455,3.578,0.57,4.678
		c0.115,1.098,0.174,1.885,0.174,2.363v27.689h-4.834V257.588z"/>
	<path d="M756.899,257.588h26.465V262H772.79v33.348h-5.316V262h-10.574V257.588z"/>
	<path d="M799.405,257.588h20.434v4.066h-15.146v11.982h14.322v4.254h-14.322v13.096h15.652v4.361h-20.939V257.588z"/>
	<path d="M839.409,257.588h10.178c4.305,0,7.543,0.809,9.711,2.43c2.172,1.623,3.254,4.037,3.254,7.242
		c0,2.393-0.709,4.379-2.123,5.967c-1.418,1.586-3.453,2.662-6.111,3.227c1.131,0.301,2.055,0.816,2.764,1.543
		c0.707,0.727,1.443,1.992,2.207,3.797l5.709,13.555h-5.658l-4.971-12.357c-0.652-1.594-1.479-2.719-2.469-3.375
		c-0.992-0.654-2.402-0.984-4.225-0.984h-3.029v16.717h-5.236V257.588z M844.645,261.654v12.861h4.064
		c2.641,0,4.709-0.582,6.205-1.742s2.244-2.756,2.244-4.795c0-2.178-0.695-3.777-2.084-4.799c-1.395-1.018-3.566-1.525-6.527-1.525
		H844.645z"/>
	<path d="M881.36,257.588h9.402c4.498,0,7.873,0.93,10.123,2.791c2.248,1.857,3.375,4.648,3.375,8.369
		c0,3.543-1.201,6.295-3.602,8.248c-2.4,1.959-5.787,2.941-10.162,2.941h-3.852v15.41h-5.285V257.588z M886.645,261.707v14.111
		h3.426c2.799,0,4.947-0.623,6.445-1.861c1.496-1.24,2.242-3.023,2.242-5.342c0-2.18-0.689-3.877-2.07-5.09
		c-1.383-1.213-3.342-1.818-5.873-1.818H886.645z"/>
	<path d="M921.071,257.588h10.176c4.305,0,7.543,0.809,9.713,2.43c2.17,1.623,3.252,4.037,3.252,7.242
		c0,2.393-0.707,4.379-2.125,5.967c-1.414,1.586-3.455,2.662-6.109,3.227c1.133,0.301,2.053,0.816,2.762,1.543
		s1.447,1.992,2.209,3.797l5.709,13.555h-5.66l-4.967-12.357c-0.654-1.594-1.48-2.719-2.471-3.375
		c-0.992-0.654-2.404-0.984-4.227-0.984h-3.027v16.717h-5.234V257.588z M926.305,261.654v12.861h4.064
		c2.637,0,4.709-0.582,6.203-1.742c1.5-1.16,2.246-2.756,2.246-4.795c0-2.178-0.695-3.777-2.084-4.799
		c-1.393-1.018-3.566-1.525-6.527-1.525H926.305z"/>
	<path d="M963.018,257.588h20.432v4.066h-15.145v11.982h14.322v4.254h-14.322v13.096h15.648v4.361h-20.936V257.588z"/>
	<path d="M998.825,257.588h26.463V262h-10.572v33.348h-5.314V262h-10.576V257.588z"/>
</g>
<path fill="#F59120" d="M206.887,306.75c-5.869,3.25-8.937,4.066-8.937,4.066s11.307-0.309,15.215-0.365
	c0-0.01,0.141-0.01,0.338-0.01l-0.008-3.92C212.817,305.633,211.051,304.441,206.887,306.75z"/>
<path fill="#F59120" d="M199.577,313.703c0,0,9.929,8.662,12.546,8.662c0.019,0,0.032,0,0.049,0c0.534,0,0.971,0,1.356,0
	l-0.017-8.311L199.577,313.703z"/>
<path fill="#F16623" d="M214.471,310.451c3.908,0.057,15.216,0.365,15.216,0.365s-3.071-0.816-8.938-4.066
	c-4.891-2.709-6.481-0.592-6.875,0.195v0.256c0,0-0.017-0.057-0.055-0.139c-0.041,0.082-0.057,0.139-0.057,0.139v-0.256
	c-0.059-0.119-0.148-0.268-0.267-0.424l0.008,3.92c0.096,0,0.178,0,0.315,0C214.235,310.438,214.471,310.438,214.471,310.451z"/>
<path fill="#F16623" d="M215.512,322.365c2.619,0,12.547-8.662,12.547-8.662l-14.185,0.357h-0.055h-0.057l-0.251-0.006l0.017,8.311
	c1.47,0,1.938,0,1.938,0C215.479,322.365,215.495,322.365,215.512,322.365z"/>
<path d="M206.978,302.873c-2.166,0.355-6.364,3.609-6.364,3.609c-6.785,0-14.852,4.604-14.852,4.604
	c3.883-1.354,11.738,4.613,11.738,4.613c6.642,7.385,11.651,9.65,14.671,10.258v0.023c0,0,0.481,0.154,1.364,0.164l-0.008-3.779
	c-0.385,0-0.822,0-1.356,0c-0.018,0-0.03,0-0.049,0c-2.617,0-12.546-8.662-12.546-8.662l13.935,0.352l-0.007-3.613
	c-0.197,0-0.338,0-0.338,0.01c-3.908,0.057-15.215,0.365-15.215,0.365s3.068-0.816,8.937-4.066c4.164-2.309,5.93-1.117,6.608-0.229
	l-0.006-3.102C212.285,302.455,208.886,302.551,206.978,302.873z"/>
<path d="M213.763,306.945v0.256c0,0,0.016-0.057,0.057-0.139c0.038,0.082,0.055,0.139,0.055,0.139v-0.256
	c0.394-0.787,1.984-2.904,6.875-0.195c5.867,3.25,8.938,4.066,8.938,4.066s-11.309-0.309-15.216-0.365
	c0-0.014-0.235-0.014-0.651-0.01c-0.137,0-0.22,0-0.315,0l0.007,3.613l0.251,0.006h0.057h0.055l14.185-0.357
	c0,0-9.929,8.662-12.547,8.662c-0.017,0-0.032,0-0.046,0c0,0-0.467,0-1.938,0l0.008,3.779c0.097,0.006,0.175,0.012,0.284,0.01
	c1.081,0.027,1.646-0.174,1.646-0.174v-0.023c3.018-0.607,8.03-2.873,14.67-10.258c0,0,7.854-5.967,11.736-4.613
	c0,0-8.065-4.604-14.849-4.604c0,0-4.2-3.254-6.366-3.609c-2.11-0.352-6.08-0.449-6.837,0.885c-0.074-0.131-0.2-0.236-0.33-0.338
	l0.006,3.102C213.615,306.678,213.704,306.826,213.763,306.945z"/>
<path d="M341.123,157.893c-19.393-53.766-65.881-93.156-124.726-93.156c-57.544,0-106.576,37.445-125.292,89.916l-5.338,27.215
	c0.002,0.945,0.498,2.299,1.069,2.797c2.232,1.953,3.44,4.504,3.577,8.111c0.692,18.025,1.45,36.048,2.122,54.068
	c0.059,1.57,0.056,3.607-0.584,4.662c10.504,26.744,26.544,47.766,43.641,63.895c16.875,15.922,34.759,27.076,49.356,34.299
	c-21.942-17.912-47.672-50.104-54.45-92.152c-8.543-52.958,24.736-122.037,82.645-124.14l0,0c0,0,0.78-0.047,2.192-0.039
	c0.176,0,0.351-0.012,0.528-0.012c5.712,0,11.207,0.705,16.467,2.016c25.848,5.664,68.854,27.02,70.639,106.382
	c0.829,36.932-21.443,76.25-46.263,100.412c13.322-8.029,28.203-19.135,42.131-34.129c14.034-15.102,27.094-34.158,36.61-57.977
	c1.791-17.846,3.664-35.685,5.475-53.531c0.363-3.598,1.727-6.063,4.079-7.871c0.603-0.463,1.241-1.781,1.241-2.727"/>
<path fill="#009348" d="M374.136,207.065c-0.355-1.232-0.854-2.41-1.427-3.543c-0.661,17.591-4.225,34.435-10.231,50.07
	c3.281-1.797,5.925-4.893,7.979-9.014C376.445,232.549,377.853,219.836,374.136,207.065z"/>
<g>
	<path fill="#F59120" d="M213.616,365.521c0.01,0,0.02,0,0.029,0c-0.009,0-0.019-0.004-0.029-0.004V365.521z"/>
	<path fill="#F59120" d="M212.172,325.98v-0.023c-3.02-0.607-8.029-2.873-14.671-10.258c0,0-7.855-5.967-11.738-4.613
		c0,0,8.066-4.604,14.852-4.604c0,0,4.198-3.254,6.364-3.609c1.908-0.322,5.307-0.418,6.512,0.547l-0.024-11.65
		c-1.857-0.445-3.917-1.635-6.128-3.979c0,0-14.49,3.07-13.585-10.561c0,0,1.489-3.072,4.379-4.244
		c2.888-1.172,3.745-2.254,3.658-2.57c-0.094-0.316,0.347,0.355,0.496,0.588c0,0,1.127,1.396-0.453,2.799
		c-1.58,1.395-6.591,8.57,2.889,8.123c0,0,4.424-1.445,7.178,2.346c0.488,0.676,1.016,1.174,1.555,1.529l-0.303-148.582
		l-0.008-3.813c-57.908,2.104-91.188,71.182-82.645,124.14c6.777,42.049,32.508,74.24,54.45,92.152
		c11.87,9.691,22.62,15.195,28.667,15.818l-0.08-39.373C212.653,326.135,212.172,325.98,212.172,325.98z M198.667,248.391
		c-5.675,3.984-12.196,10.391-23.548,10.988c-11.352,0.607-25.843-2.896-33.33-12.557c0,0-1.449-1.77,0.4-2.979
		c1.852-1.209,10.228-12.805,28.341-12.838c0,0,26.811,0.717,32.123,10.986C202.653,241.992,204.345,244.406,198.667,248.391z
		 M139.918,220.752c4-4.504,13.375-6.623,15.25-6.876c1.875-0.248,11.166-3.75,13.645-3.873c2.481-0.125,6.731-0.377,8.482,0
		c1.75,0.375,17.751,5.375,17.751,5.375s6.876,3.751,1.624,6.503c-5.249,2.75-14-3.127-18.376-4.254
		c-4.375-1.123-9.75-1.25-13.626-1.123c-3.874,0.123-14.75,3.744-16.75,3.875C145.919,220.504,135.918,225.25,139.918,220.752z"/>
	<path fill="#F59120" d="M216.502,365.402c-0.97,0.084-1.926,0.137-2.857,0.119c0.511,0.049,1,0.076,1.441,0.063
		C215.537,365.561,216.02,365.479,216.502,365.402z"/>
</g>
<path d="M202.653,241.992c-5.312-10.27-32.123-10.986-32.123-10.986c-18.113,0.033-26.489,11.629-28.341,12.838
	c-1.849,1.209-0.4,2.979-0.4,2.979c7.487,9.66,21.978,13.164,33.33,12.557c11.352-0.598,17.873-7.004,23.548-10.988
	C204.345,244.406,202.653,241.992,202.653,241.992z M190.5,247.539c-4.157,2.922-8.931,7.609-17.245,8.049
	c-0.168,0.01-0.345,0.01-0.515,0.018c-1.228,0.428-2.545,0.67-3.926,0.67c-2.247,0-4.338-0.627-6.113-1.693
	c-5.394-1.318-10.552-3.932-13.85-8.191c0,0-1.062-1.295,0.293-2.18c1.098-0.717,5.336-6.424,13.963-8.58
	c1.684-0.92,3.629-1.457,5.706-1.457c1.585,0,3.094,0.307,4.469,0.861c5.792,0.525,17.26,2.266,20.136,7.822
	C193.419,242.857,194.655,244.625,190.5,247.539z"/>
<path fill="#FFFFFF" d="M173.283,235.035c4.15,1.674,7.064,5.605,7.064,10.188c0,4.783-3.172,8.842-7.607,10.383
	c0.17-0.008,0.347-0.008,0.515-0.018c8.314-0.439,13.087-5.127,17.245-8.049c4.155-2.914,2.919-4.682,2.919-4.682
	C190.542,237.301,179.075,235.561,173.283,235.035z"/>
<path fill="#FFFFFF" d="M157.282,245.223c0-4.111,2.349-7.689,5.826-9.592c-8.626,2.156-12.865,7.863-13.963,8.58
	c-1.355,0.885-0.293,2.18-0.293,2.18c3.298,4.26,8.456,6.873,13.85,8.191C159.45,252.627,157.282,249.172,157.282,245.223z"/>
<path d="M173.283,235.035c-1.375-0.555-2.884-0.861-4.469-0.861c-2.077,0-4.022,0.537-5.706,1.457
	c2.018-0.504,4.271-0.816,6.788-0.82C169.896,234.811,171.238,234.848,173.283,235.035z"/>
<path d="M162.701,254.582c1.774,1.066,3.866,1.693,6.113,1.693c1.381,0,2.699-0.242,3.926-0.67
	C169.564,255.725,166.089,255.412,162.701,254.582z"/>
<path d="M180.347,245.223c0-4.582-2.914-8.514-7.064-10.188c-2.044-0.188-3.387-0.225-3.387-0.225
	c-2.516,0.004-4.77,0.316-6.788,0.82c-3.477,1.902-5.826,5.48-5.826,9.592c0,3.949,2.168,7.404,5.419,9.359
	c3.388,0.83,6.863,1.143,10.039,1.023C177.175,254.064,180.347,250.006,180.347,245.223z"/>
<path d="M164.669,216.504c3.876-0.127,9.251,0,13.626,1.123c4.375,1.127,13.127,7.004,18.376,4.254
	c5.252-2.752-1.624-6.503-1.624-6.503s-16.001-5-17.751-5.375c-1.751-0.377-6.001-0.125-8.482,0
	c-2.479,0.123-11.77,3.625-13.645,3.873c-1.875,0.254-11.25,2.373-15.25,6.876c-4,4.498,6-0.248,8-0.373
	C149.919,220.248,160.795,216.627,164.669,216.504z"/>
<path fill="#F16623" d="M302.969,241.754c-1.784-79.363-44.791-100.718-70.639-106.382c-7.704-1.686-13.887-1.986-16.995-2.004
	c-0.734,0.004-1.466,0.016-2.192,0.039l0.008,3.813l0.303,148.582c2.503,1.66,5.292,0.111,5.849-2.973
	c0.675-3.746,7.22-3.25,8.98-2.617c1.759,0.633,1.219-0.045,0.272-1.174c-0.95-1.131-1.896-3.84-3.387-3.928
	c-1.49-0.09-0.089-4.287-2.8-4.105c-2.707,0.18,1.671-2.033,3.162-0.951c1.488,1.086,3.521,4.783,3.521,4.783
	s4.468,2.715,4.468,4.559c0,1.854-1.217,6.006-4.288,5.555c-3.069-0.453-5.102-1.807-6.771,1.896
	c-1.183,2.627-4.481,6.016-8.995,4.924l0.024,11.65c0.13,0.102,0.256,0.207,0.33,0.338c0.758-1.334,4.728-1.236,6.837-0.885
	c2.167,0.355,6.366,3.609,6.366,3.609c6.784,0,14.849,4.604,14.849,4.604c-3.881-1.354-11.736,4.613-11.736,4.613
	c-6.641,7.385-11.652,9.65-14.67,10.258v0.023c0,0-0.565,0.201-1.646,0.174c-0.108,0.002-0.187-0.004-0.284-0.01l0.08,39.377
	c0.94,0.02,1.906-0.035,2.886-0.119c11.838-1.066,26.41-9.807,40.204-23.236C281.526,318.004,303.797,278.686,302.969,241.754z
	 M231.245,216.469c0,0,16-5.001,17.752-5.376c1.75-0.371,6-0.121,8.48,0c2.479,0.125,11.771,3.625,13.646,3.877
	s11.248,2.375,15.25,6.875c4.001,4.502-6.001-0.248-8.001-0.373c-2.002-0.129-12.876-3.75-16.752-3.877
	c-3.876-0.125-9.25,0-13.626,1.125c-4.374,1.127-13.126,7.004-18.375,4.248C224.368,220.221,231.245,216.469,231.245,216.469z
	 M234.313,243.996c-5.393-3.787-3.786-6.076-3.786-6.076c5.048-9.758,30.518-10.443,30.518-10.443
	c17.209,0.035,25.166,11.053,26.924,12.199c1.761,1.148,0.381,2.828,0.381,2.828c-7.111,9.18-20.881,12.51-31.666,11.932
	C245.902,253.865,239.705,247.781,234.313,243.996z"/>
<path d="M211.898,284.271c-2.754-3.791-7.178-2.346-7.178-2.346c-9.48,0.447-4.468-6.729-2.889-8.123
	c1.58-1.402,0.453-2.799,0.453-2.799c-0.148-0.232-0.589-0.904-0.496-0.588c0.086,0.316-0.771,1.398-3.658,2.57
	c-2.89,1.172-4.379,4.244-4.379,4.244c-0.905,13.631,13.585,10.561,13.585,10.561c2.212,2.344,4.271,3.533,6.128,3.979l-0.012-5.969
	C212.914,285.445,212.387,284.947,211.898,284.271z"/>
<path d="M222.46,286.846c1.669-3.703,3.702-2.35,6.771-1.896c3.07,0.451,4.288-3.701,4.288-5.555c0-1.844-4.468-4.559-4.468-4.559
	s-2.032-3.697-3.521-4.783c-1.49-1.082-5.868,1.131-3.162,0.951c2.711-0.182,1.31,4.016,2.8,4.105
	c1.491,0.088,2.437,2.797,3.387,3.928c0.946,1.129,1.486,1.807-0.272,1.174c-1.761-0.633-8.306-1.129-8.98,2.617
	c-0.557,3.084-3.346,4.633-5.849,2.973l0.012,5.969C217.979,292.861,221.277,289.473,222.46,286.846z"/>
<path d="M288.35,242.504c0,0,1.38-1.68-0.381-2.828c-1.758-1.146-9.714-12.164-26.924-12.199c0,0-25.469,0.686-30.518,10.443
	c0,0-1.606,2.289,3.786,6.076c5.392,3.785,11.589,9.869,22.371,10.439C267.468,255.014,281.239,251.684,288.35,242.504z
	 M239.303,238.74c2.325-4.494,10.572-6.357,16.367-7.123c1.218-0.447,2.532-0.703,3.913-0.703c0.684,0,1.35,0.07,1.997,0.182
	c0.043,0,0.069,0,0.069,0c12.6,0.031,18.424,8.092,19.712,8.93c1.289,0.844,0.28,2.074,0.28,2.074
	c-3.845,4.965-10.351,7.586-16.673,8.453c-1.592,0.857-3.427,1.361-5.385,1.361c-2.45,0-4.703-0.783-6.528-2.082
	c-4.754-1.568-8.035-4.574-10.982-6.643C238.125,240.418,239.303,238.74,239.303,238.74z"/>
<path fill="#FFFFFF" d="M270.541,241.414c0,3.922-2.249,7.334-5.573,9.139c6.322-0.867,12.828-3.488,16.673-8.453
	c0,0,1.009-1.23-0.28-2.074c-1.288-0.838-7.112-8.898-19.712-8.93c0,0-0.026,0-0.069,0
	C266.676,231.998,270.541,236.27,270.541,241.414z"/>
<path fill="#FFFFFF" d="M248.626,241.414c0-4.479,2.927-8.287,7.043-9.797c-5.795,0.766-14.042,2.629-16.367,7.123
	c0,0-1.178,1.678,2.77,4.449c2.948,2.068,6.228,5.074,10.982,6.643C250.373,247.918,248.626,244.861,248.626,241.414z"/>
<path d="M258.456,250.836c-2.002-0.105-3.786-0.473-5.401-1.004c1.825,1.299,4.079,2.082,6.528,2.082
	c1.958,0,3.793-0.504,5.385-1.361C262.732,250.855,260.52,250.951,258.456,250.836z"/>
<path d="M259.583,230.914c-1.381,0-2.695,0.256-3.913,0.703c3.101-0.408,5.497-0.508,5.91-0.521
	C260.933,230.984,260.267,230.914,259.583,230.914z"/>
<path d="M248.626,241.414c0,3.447,1.746,6.504,4.428,8.418c1.616,0.531,3.399,0.898,5.401,1.004c2.063,0.115,4.276,0.02,6.512-0.283
	c3.325-1.805,5.573-5.217,5.573-9.139c0-5.145-3.865-9.416-8.961-10.318c-0.413,0.014-2.809,0.113-5.91,0.521
	C251.554,233.127,248.626,236.936,248.626,241.414z"/>
<path d="M247.995,218.719c4.376-1.125,9.75-1.25,13.626-1.125c3.875,0.127,14.75,3.748,16.752,3.877
	c2,0.125,12.002,4.875,8.001,0.373c-4.003-4.5-13.375-6.623-15.25-6.875s-11.167-3.752-13.646-3.877c-2.48-0.121-6.73-0.371-8.48,0
	c-1.752,0.375-17.752,5.376-17.752,5.376s-6.877,3.752-1.625,6.498C234.869,225.723,243.621,219.846,247.995,218.719z"/>
<path fill="#009245" d="M357.683,184.883c-0.066,1.006-0.693,2.408-1.346,2.904c-2.551,1.926-4.025,4.557-4.422,8.391
	c-1.961,19.018-3.992,38.027-5.934,57.044c-0.012,0.109-0.021,0.209-0.033,0.316c-0.137,1.371-0.248,3.066,0.059,4.275
	c-1.729,6.828-9.637,35.057-27.128,57.883c-0.063,0.057-0.124,0.115-0.187,0.168c-0.073,0.129-0.15,0.252-0.222,0.377
	c-6.46,8.33-14.224,15.885-23.431,21.391c-0.026-0.051-0.058-0.094-0.083-0.137c-0.775-1.537-1.505-2.641-2.233-3.43
	c-2.206-2.379-4.415-1.852-7.993-1.604c-2.184,0.152-5.854,0.654-8.015,1.041c-5.617,1.002-9.663,4.65-10.23,12.225
	c-0.099,1.334-0.105,2.77,0.022,4.355c0.866,10.781,6.532,14.014,13.311,13.805c1.892-0.064,4.881-0.662,6.765-0.857
	c4.853-0.494,9.406-2.174,10.708-9.691c0.27-1.566,1.381-3.063,2.36-3.748c5.51-3.871,11.078-9.174,15.864-14.252
	c1.493-1.584,2.937-3.318,4.338-5.164c3.478-3.186,7.227-6.9,11.017-11.154c18.035-20.684,26.352-54.361,26.352-54.361
	c0.66,5.07,5.125,7.643,9.484,8.953c0.943,0.205,1.912,0.35,2.9,0.422l1.729,0.131c12.172,0.906,22.811-8.721,23.76-21.504
	l3.209-43.052c0.949-12.779-8.143-23.877-20.313-24.783l-1.73-0.129c-0.208-0.018-0.412-0.006-0.619-0.014
	c-6.205-82.477-75.088-147.465-159.15-147.465c-82.552,0-150.439,62.68-158.729,143.043c-0.07,0.004-0.139-0.002-0.208,0.002
	l-1.729,0.1c-12.185,0.732-21.44,11.697-20.672,24.492l2.582,43.093c0.767,12.793,11.265,22.576,23.449,21.85l1.73-0.105
	c7.089-0.426,13.17-4.332,16.879-10.033c0.405-0.385,0.743-0.873,0.974-1.527c0.057-0.162,0.128-0.299,0.207-0.432
	c0.004-0.037,0.015-0.078,0.021-0.117c1.881-3.67,2.859-7.902,2.592-12.381l-2.584-43.093c-0.056-0.959-0.184-1.889-0.347-2.811
	c-0.096-2.373-0.194-4.748-0.286-7.121c-0.15-3.85-1.456-6.563-3.878-8.646c-0.621-0.533-1.156-1.973-1.159-2.98l5.787-29.006
	c20.285-55.918,73.436-95.823,135.815-95.823c63.787,0,113.406,42.291,135.2,99.278"/>
</svg>
